<svg xmlns="http://www.w3.org/2000/svg" xmlns:xlink="http://www.w3.org/1999/xlink" viewBox="0 0 148.53 148.53"><defs><style>.cls-1{fill:url(#New_Gradient_Swatch_2);}.cls-2{fill:#187e89;}.cls-3{fill:#c6c29b;}.cls-4{fill:#f2eed1;}</style><linearGradient id="New_Gradient_Swatch_2" x1="74.26" y1="34.74" x2="74.26" y2="132.63" gradientUnits="userSpaceOnUse"><stop offset="0" stop-color="#2cabae"/><stop offset="1" stop-color="#187e89"/></linearGradient></defs><g id="elements"><path class="cls-1" d="M148.53,74.27A74.27,74.27,0,1,1,74.26,0,74.27,74.27,0,0,1,148.53,74.27Z"/><path class="cls-2" d="M148.53,74.27A74.27,74.27,0,0,0,74.26,0V148.53A74.27,74.27,0,0,0,148.53,74.27Z"/><path class="cls-3" d="M148.53,74.27a74.08,74.08,0,0,0-26.16-56.56c2.94,3.14,6.87,7.82,8.21,12.29,1.83,6.08,2.13,11.32-3.2,14.08h-7.44c-8.2,0-14.85,4.24-14.85,12.44S111.74,69,119.94,69h3.76c10,2.76,7.68,16.58,0,16.58H89.08a11.06,11.06,0,1,0,0,22.11h29.34c7.2,0,7.31,11.25-1.91,11.64l-9.9.48A13.56,13.56,0,0,0,94,132.39c-.31,5.12,3.48,9.67,6.52,11.34A74.28,74.28,0,0,0,148.53,74.27Z"/><path class="cls-4" d="M0,74.27a74.08,74.08,0,0,0,25.69,56.15c3.55-.32,7.76-1.89,10.09-5.25,2.65-3.82,2.92-14.16-3.83-15.3-5.29-.87-7.06-2.93-7.06-6.16,0-6.48,5.88-5.89,5.88-5.89s3.24,0,6.48-.29c4.19-.39,10.29-2.65,10.29-10.89,0-5-3.23-8.69-10-9.11-4.7-.3-14.56.13-17.35,0C14,77.23,14.6,66.65,22,66.65c1.12,0,31.31-.59,31.31-.59A19.65,19.65,0,0,0,72.91,46.45v-.79c0-10.83-6.11-20.9-16.94-20.9H41.85c-2.44,0-4.62-1.72-4.31-3.66.44-2.74,1.7-4.06,4.32-4a71.89,71.89,0,0,0,10.39-.33c5.82-.53,9.47-10.51,4.35-14.65A74.28,74.28,0,0,0,0,74.27Z"/></g></svg>