<svg xmlns="http://www.w3.org/2000/svg" xmlns:xlink="http://www.w3.org/1999/xlink" viewBox="0 0 179.98 180.01"><defs><style>.cls-1{fill:url(#New_Gradient_Swatch_6);}.cls-2{fill:#f5c268;}.cls-3{fill:#d89144;}.cls-4{fill:url(#New_Gradient_Swatch_6-2);}.cls-5{fill:url(#New_Gradient_Swatch_4);}.cls-6{fill:#f2eed1;}.cls-7{fill:#ee6d58;}</style><linearGradient id="New_Gradient_Swatch_6" x1="17.33" y1="97.87" x2="84.22" y2="37.55" gradientUnits="userSpaceOnUse"><stop offset="0" stop-color="#f5c268"/><stop offset="1" stop-color="#d89144"/></linearGradient><linearGradient id="New_Gradient_Swatch_6-2" x1="169.68" y1="58.52" x2="81.04" y2="134.02" xlink:href="#New_Gradient_Swatch_6"/><linearGradient id="New_Gradient_Swatch_4" x1="26.17" y1="141.03" x2="83.12" y2="141.03" gradientUnits="userSpaceOnUse"><stop offset="0" stop-color="#ee6d58"/><stop offset="1" stop-color="#bf423c"/></linearGradient></defs><g id="elements"><path class="cls-1" d="M44.61,67.58A66.31,66.31,0,0,1,105.82,1.49,89.65,89.65,0,0,0,0,90a89.65,89.65,0,0,0,26.17,63.41L64.6,115A66.08,66.08,0,0,1,44.61,67.58Z"/><path class="cls-2" d="M44.61,67.58A66.08,66.08,0,0,0,64.6,115l88.72-88.72c-.6-.59-1.16-1.21-1.77-1.79a.69.69,0,0,1-.13-.11A90.32,90.32,0,0,0,136.7,13.19l-.86-.52c-1.71-1-3.45-2-5.23-2.89a.61.61,0,0,1-.14-.07,89.55,89.55,0,0,0-17.54-6.63l-1.21-.31c-2-.48-3.91-.92-5.9-1.28h0A66.31,66.31,0,0,0,44.61,67.58Z"/><path class="cls-3" d="M90,180A89.67,89.67,0,0,0,177.26,68.41,66.28,66.28,0,0,1,64.6,115L26.17,153.42A89.67,89.67,0,0,0,90,180Z"/><path class="cls-4" d="M64.6,115A66.28,66.28,0,0,0,177.26,68.41h0a89.79,89.79,0,0,0-21-39.17l-.34-.38c-.83-.89-1.7-1.72-2.56-2.58Z"/><path class="cls-3" d="M97.13,44.63a7.71,7.71,0,0,1-7.71,7.71h-59a7.71,7.71,0,0,1-7.71-7.71h0a7.71,7.71,0,0,1,7.71-7.71h59a7.71,7.71,0,0,1,7.71,7.71Z"/><path class="cls-5" d="M83.12,141a5.9,5.9,0,0,1-5.9,5.9H32.07a5.9,5.9,0,0,1-5.9-5.9h0a5.9,5.9,0,0,1,5.9-5.9H77.22a5.9,5.9,0,0,1,5.9,5.9Z"/><path class="cls-6" d="M72.41,79.61a7.71,7.71,0,0,1-7.71,7.71H19a7.71,7.71,0,0,1-7.71-7.71h0A7.71,7.71,0,0,1,19,71.9H64.7a7.71,7.71,0,0,1,7.71,7.71Z"/><path class="cls-7" d="M121.45,68.41a6.14,6.14,0,0,1-6.14,6.14H79a6.14,6.14,0,0,1-6.14-6.14h0A6.14,6.14,0,0,1,79,62.27h36.36a6.14,6.14,0,0,1,6.14,6.14Z"/><path class="cls-3" d="M173.9,104.48a5.49,5.49,0,0,1-5.49,5.49h-42a5.49,5.49,0,0,1-5.49-5.49h0A5.49,5.49,0,0,1,126.42,99h42a5.49,5.49,0,0,1,5.49,5.49Z"/></g></svg>