<?xml version="1.0" encoding="utf-8"?>
<!-- Generator: Adobe Illustrator 26.0.1, SVG Export Plug-In . SVG Version: 6.00 Build 0)  -->
<svg version="1.1" id="Layer_1" xmlns="http://www.w3.org/2000/svg" xmlns:xlink="http://www.w3.org/1999/xlink" x="0px" y="0px"
	 viewBox="0 0 993.4 448.5" style="enable-background:new 0 0 993.4 448.5;" xml:space="preserve">
<style type="text/css">
	.st0{fill:#FFFFFF;}
	.st1{enable-background:new    ;}
	.st2{fill-rule:evenodd;clip-rule:evenodd;fill:#00FF00;}
	.st3{fill-rule:evenodd;clip-rule:evenodd;fill:#052D13;}
	.st4{fill-rule:evenodd;clip-rule:evenodd;fill:#28AB5B;}
	.st5{fill-rule:evenodd;clip-rule:evenodd;fill:#FFFFFF;}
	.st6{fill-rule:evenodd;clip-rule:evenodd;fill:#63D45D;}
</style>
<g>
	<path class="st0" d="M875.2,348.6H232.4c-65.3,0-118.2-52.9-118.2-118.2v0c0-65.3,52.9-118.2,118.2-118.2h642.8
		c65.3,0,118.2,52.9,118.2,118.2v0C993.4,295.7,940.5,348.6,875.2,348.6z"/>
	<g class="st1">
		<path d="M517.5,200.5h-24.1l-4.6,11.1h-12.3l23.1-51.9h11.9l23.2,51.9h-12.6L517.5,200.5z M513.7,191.4l-8.2-19.9l-8.2,19.9H513.7
			z"/>
		<path d="M539.3,156.6h11.6v55h-11.6V156.6z"/>
		<path d="M560.2,159.8c0-3.6,2.9-6.5,7.2-6.5c4.3,0,7.2,2.7,7.2,6.2c0,3.9-2.9,6.7-7.2,6.7C563.1,166.2,560.2,163.4,560.2,159.8z
			 M561.6,171.8h11.6v39.9h-11.6V171.8z"/>
		<path d="M622.8,195h-30.2c1.1,5,5.3,8,11.4,8c4.2,0,7.3-1.3,10-3.9l6.2,6.7c-3.7,4.2-9.3,6.5-16.5,6.5c-13.8,0-22.8-8.7-22.8-20.5
			c0-11.9,9.1-20.5,21.3-20.5c11.7,0,20.8,7.9,20.8,20.7C623,192.7,622.8,194,622.8,195z M592.4,188.2h19.6c-0.8-5-4.6-8.3-9.8-8.3
			C597,179.9,593.3,183.1,592.4,188.2z"/>
		<path d="M671.5,188.8v22.8h-11.6v-21.1c0-6.5-3-9.4-8.1-9.4c-5.6,0-9.6,3.4-9.6,10.8v19.7h-11.6v-39.9h11v4.7
			c3.1-3.4,7.8-5.3,13.2-5.3C664.4,171.2,671.5,176.7,671.5,188.8z"/>
		<path d="M693.2,163.2c0,1.9-0.3,3.3-1.9,7.4l-4.3,10.7h-7.3l3.2-11.7c-2.4-1-3.9-3.3-3.9-6.4c0-4.3,3.1-7.1,7.2-7.1
			C690.2,156,693.2,158.9,693.2,163.2z"/>
		<path d="M695.9,207.9l3.9-8.3c3.6,2.3,9,3.9,13.9,3.9c5.3,0,7.3-1.4,7.3-3.6c0-6.5-24.1,0.1-24.1-15.8c0-7.6,6.8-12.9,18.5-12.9
			c5.5,0,11.6,1.3,15.3,3.5l-3.9,8.2c-3.9-2.2-7.9-3-11.5-3c-5.2,0-7.4,1.6-7.4,3.7c0,6.8,24.1,0.2,24.1,15.9
			c0,7.4-6.9,12.7-18.8,12.7C706.4,212.2,699.6,210.4,695.9,207.9z"/>
		<path d="M481,274.7c0-15.2,11.6-26.4,27.2-26.4c7.6,0,14.4,2.5,19,7.6l-3.5,3.5c-4.2-4.3-9.4-6.2-15.3-6.2
			c-12.5,0-21.9,9.2-21.9,21.5s9.4,21.5,21.9,21.5c5.9,0,11.1-1.9,15.3-6.2l3.5,3.5c-4.6,5-11.4,7.6-19.1,7.6
			C492.6,301.1,481,289.9,481,274.7z"/>
		<path d="M566.7,276.4v24.2h-5v-6.1c-2.4,4-7,6.5-13.4,6.5c-8.8,0-14.2-4.6-14.2-11.3c0-6,3.9-11,15.1-11h12.4v-2.4
			c0-6.7-3.8-10.3-11-10.3c-5,0-9.8,1.8-13,4.6l-2.4-3.9c3.9-3.3,9.7-5.3,15.9-5.3C560.9,261.3,566.7,266.4,566.7,276.4z
			 M561.4,288.9v-6.4h-12.2c-7.6,0-10,3-10,7c0,4.5,3.6,7.3,9.9,7.3C554.9,296.8,559.3,294,561.4,288.9z"/>
		<path d="M581,245.6h5.3v55H581V245.6z"/>
		<path d="M597,281.1c0-11.6,8.5-19.8,20.1-19.8c6.6,0,12.2,2.6,15.3,7.7l-3.9,2.7c-2.7-3.9-6.8-5.8-11.3-5.8
			c-8.5,0-14.8,6.1-14.8,15.2c0,9.2,6.2,15.2,14.8,15.2c4.5,0,8.7-1.8,11.3-5.7l3.9,2.7c-3.1,5-8.7,7.7-15.3,7.7
			C605.4,301,597,292.8,597,281.1z"/>
		<path d="M677.8,261.6v39h-5v-7.1c-2.7,4.7-7.8,7.5-14,7.5c-9.9,0-16.5-5.6-16.5-16.8v-22.6h5.3v22.1c0,8.3,4.3,12.5,11.7,12.5
			c8.2,0,13.3-5.3,13.3-14.2v-20.5H677.8z"/>
		<path d="M692.5,245.6h5.3v55h-5.3V245.6z"/>
		<path d="M741.9,276.4v24.2h-5v-6.1c-2.4,4-7,6.5-13.4,6.5c-8.8,0-14.2-4.6-14.2-11.3c0-6,3.9-11,15.1-11h12.4v-2.4
			c0-6.7-3.8-10.3-11-10.3c-5,0-9.8,1.8-13,4.6l-2.4-3.9c3.9-3.3,9.7-5.3,15.9-5.3C736.2,261.3,741.9,266.4,741.9,276.4z
			 M736.6,288.9v-6.4h-12.2c-7.6,0-10,3-10,7c0,4.5,3.6,7.3,9.9,7.3C730.2,296.8,734.6,294,736.6,288.9z"/>
		<path d="M776.8,298.2c-2.1,1.9-5.2,2.7-8.2,2.7c-7.3,0-11.4-4.2-11.4-11.3v-23.6h-7v-4.4h7v-8.5h5.3v8.5h11.9v4.4h-11.9v23.3
			c0,4.6,2.4,7.1,6.7,7.1c2.1,0,4.3-0.7,5.8-2L776.8,298.2z"/>
		<path d="M781,281.1c0-11.6,8.5-19.8,19.9-19.8c11.4,0,19.8,8.2,19.8,19.8c0,11.6-8.4,19.9-19.8,19.9
			C789.4,301,781,292.7,781,281.1z M815.3,281.1c0-9.1-6.2-15.2-14.5-15.2c-8.3,0-14.5,6.1-14.5,15.2c0,9.1,6.2,15.2,14.5,15.2
			C809.1,296.3,815.3,290.2,815.3,281.1z"/>
		<path d="M851,261.3v5.1c-0.4,0-0.9-0.1-1.3-0.1c-8.2,0-13.1,5.2-13.1,14.4v19.9h-5.3v-39h5v7.6C838.9,264.1,843.8,261.3,851,261.3
			z"/>
	</g>
	<g>
		<g>
			<path class="st2" d="M274.5,240.4c0.8,4.1,0.7,8.3-0.4,12.3c-0.6,2.1-1.4,4.1-2.5,5.8c1.9-0.5,4-0.8,6-0.8
				c26.2,0.2,50.9,9.1,66.9,30.8c6.6,8.9,12.2,21.1,13.5,32.1c0.2,1.9,0.2,3.8,0,5.6c0.4,0.6,0.8,1.2,1.2,1.9
				c2.5,4.6,3.5,9.8,3.2,15c1.8,2.3,3.3,4.7,4.3,7.3c1.6,4.2,1.9,8.8,1.5,13.3c2.6,2.9,4.7,6.2,5.8,9.9c1.5,4.9,2.2,9.5,1.4,14.6
				c-0.2,1.4-0.6,2.9-1.1,4.2c-0.4,1-0.8,2-1.2,2.9c-0.8,1.7-2.1,3.9-2.6,5.6c-2.4,10.2-10.8,17.4-20.8,19.8
				c-3.2,3-6.9,5.1-11.2,6.7c-9.2,3.4-19.5,1.9-26.9-4.6c-2-1.8-3.7-3.8-5.1-6.1c-2.6-0.2-5.2-0.7-7.6-1.6
				c-4.8-1.8-8.9-5.1-11.7-9.4c-2.5,1.7-5,3.2-7.2,4.5c-20.9,12.6-45.1,21.6-68.4,28.4c-1.8,0.5-3.5,0.5-5.4,0
				c-23.3-6.7-47.5-15.8-68.4-28.4c-2.2-1.3-4.7-2.9-7.2-4.5c-2.8,4.3-6.9,7.6-11.7,9.4c-2.5,0.9-5,1.5-7.6,1.6
				c-1.4,2.3-3.1,4.4-5.1,6.1c-7.5,6.6-17.7,8-26.9,4.6c-4.3-1.6-7.9-3.8-11.2-6.7c-10-2.3-18.3-9.5-20.8-19.8
				c-0.5-1.7-1.9-4-2.6-5.6c-1.1-2.3-1.9-4.7-2.3-7.2c-0.9-5.1-0.1-9.7,1.4-14.6c1.1-3.7,3.2-7,5.8-9.9c-0.4-4.5-0.1-9.1,1.5-13.3
				c1-2.6,2.5-5.1,4.3-7.3c-0.3-5.2,0.7-10.5,3.2-15c0.4-0.6,0.7-1.3,1.2-1.9c-0.2-1.9-0.3-3.7,0-5.6c1.4-11,7-23.3,13.5-32.1
				c16-21.6,40.7-30.5,66.9-30.8c2,0,4.1,0.3,6,0.8c-1.1-1.8-1.9-3.7-2.5-5.8c-1.1-4-1.2-8.2-0.4-12.3c-1.2-1.5-2.1-3.1-2.9-4.9
				c-1.1-0.8-3.2-1.8-4.3-2.4c-10.1-6.4-12-15.6-13.3-26.6c-0.1-0.4-0.1-1-0.2-1.5c-1.4-5.6-2-11.9-1.8-17.6c0-0.4,0-0.8,0.1-1.2
				c-3.6-5.7-6.3-11.9-8.1-18.5c-1.6-5.7-2.4-12-2.4-18.1c-1.9-2-3.4-4.4-4.4-7c-18.1-46.7-2.9-93.1,36.4-123.2
				C160.5,5.4,186.3,0,208.8,0c22.5,0,48.3,5.4,66.5,19.3c39.3,30.1,54.5,76.5,36.4,123.2c-1,2.6-2.5,5-4.4,7
				c0,6.1-0.8,12.4-2.4,18.1c-1.8,6.6-4.5,12.8-8.1,18.5c0,0.4,0.1,0.8,0.1,1.2c0.2,5.7-0.4,12-1.8,17.6c-0.1,0.4-0.2,1-0.2,1.5
				c-1.3,11-3.1,20.2-13.3,26.6c-1.1,0.7-3.1,1.6-4.3,2.4C276.6,237.2,275.7,238.9,274.5,240.4z"/>
			
				<ellipse transform="matrix(0.7071 -0.7071 0.7071 0.7071 -108.3192 217.8475)" class="st2" cx="208.8" cy="239.7" rx="208.8" ry="208.8"/>
			
				<ellipse transform="matrix(0.7071 -0.7071 0.7071 0.7071 -108.3192 217.8476)" class="st3" cx="208.8" cy="239.7" rx="199.2" ry="199.2"/>
			<path class="st4" d="M208.8,62.7c97.8,0,177,79.3,177,177c0,9.4-0.7,18.6-2.1,27.5c-6-9.2-7.9-8.1-5.9-13.7
				c2.6-7.2-2.6-12.8-6.4-6.4c-3.8,6.4-9.8,10.6-9.8,4.7s-9.8-7.2-11.9-9.8c-2.1-2.6-5.5-11.1-15.3-13.6
				c-9.8-2.6-11.5,13.6-34.9,2.6c-23.4-11.1-166.6-12.2-172.4-9.8c-5.8,2.4-8.1,3.6-12.1,3.8c-4,0.2-8.7,4.7-12.1,7.2
				c-3.4,2.6-9.6-3-14.3-2.3c-4.7,0.6-5.7,4.9-11.3,7.5c-5.5,2.6-3.8,17.9-21.7,25.5c-6.5,2.8-13.6,8.3-19.8,14.1
				c-2.6-12-3.9-24.5-3.9-37.3C31.8,141.9,111,62.7,208.8,62.7z"/>
			<circle class="st3" cx="112.4" cy="199.7" r="5.2"/>
			<path class="st5" d="M52.8,176.7c0,0,8.9-1.1,10.8-10.7c1.9,9.6,10.8,10.7,10.8,10.7s-8.9,1.1-10.8,10.7
				C61.7,177.8,52.8,176.7,52.8,176.7z"/>
			<path class="st2" d="M47.7,233.4c0,0,5.9-0.7,7.1-7.1c1.3,6.3,7.1,7.1,7.1,7.1s-5.9,0.7-7.1,7.1
				C53.6,234.1,47.7,233.4,47.7,233.4z"/>
			<path class="st3" d="M90.6,219c1.7,0,3.1-1.4,3.1-3.1c0-1.7-1.4-3.1-3.1-3.1s-3.1,1.4-3.1,3.1C87.5,217.6,88.9,219,90.6,219z"/>
			<path class="st2" d="M97.4,140.9c1.7,0,3.1-1.4,3.1-3.1c0-1.7-1.4-3.1-3.1-3.1c-1.7,0-3.1,1.4-3.1,3.1
				C94.2,139.5,95.6,140.9,97.4,140.9z"/>
			<path class="st3" d="M90.6,170.4c0,0,6.5-0.8,7.9-7.8c1.4,7,7.9,7.8,7.9,7.8s-6.5,0.8-7.9,7.8C97.2,171.2,90.6,170.4,90.6,170.4z
				"/>
			<path class="st5" d="M78.9,156c1.3,0,2.3-1,2.3-2.3c0-1.3-1-2.3-2.3-2.3c-1.3,0-2.3,1-2.3,2.3C76.6,155,77.6,156,78.9,156z"/>
			<path class="st3" d="M75,194.8c0,0,5-0.6,6.1-6c1.1,5.4,6.1,6,6.1,6s-5,0.6-6.1,6C80,195.4,75,194.8,75,194.8z"/>
			<path class="st3" d="M53.2,211.7c1.7,0,3.1-1.4,3.1-3.1c0-1.7-1.4-3.1-3.1-3.1c-1.7,0-3.1,1.4-3.1,3.1
				C50,210.2,51.4,211.7,53.2,211.7z"/>
			<path class="st3" d="M296.9,206.6c0,0,9.4-1.2,11.4-11.2c2,10.1,11.4,11.2,11.4,11.2s-9.4,1.2-11.4,11.2
				C306.3,207.7,296.9,206.6,296.9,206.6z"/>
			<path class="st2" d="M314.5,134.4c0,0,6.2-0.8,7.5-7.4c1.3,6.7,7.5,7.4,7.5,7.4s-6.2,0.8-7.5,7.4
				C320.7,135.2,314.5,134.4,314.5,134.4z"/>
			<path class="st2" d="M317.3,175.7c2.9,0,5.2-2.3,5.2-5.2c0-2.9-2.3-5.2-5.2-5.2c-2.9,0-5.2,2.3-5.2,5.2
				C312.2,173.4,314.5,175.7,317.3,175.7z"/>
			<path class="st5" d="M361.1,226.4c1.4,0,2.6-1.2,2.6-2.6c0-1.4-1.2-2.6-2.6-2.6c-1.4,0-2.6,1.2-2.6,2.6
				C358.6,225.2,359.7,226.4,361.1,226.4z"/>
			<path class="st2" d="M342.8,172.7c0,0,8.9-1.1,10.8-10.7c1.9,9.6,10.8,10.7,10.8,10.7s-8.9,1.1-10.8,10.7
				C351.7,173.8,342.8,172.7,342.8,172.7z"/>
			<path class="st5" d="M338.6,159.6c1.4,0,2.6-1.2,2.6-2.6c0-1.4-1.2-2.6-2.6-2.6c-1.4,0-2.6,1.2-2.6,2.6
				C336,158.5,337.2,159.6,338.6,159.6z"/>
			<path class="st3" d="M327.3,193.3c1.7,0,3.1-1.4,3.1-3.1c0-1.7-1.4-3.1-3.1-3.1c-1.7,0-3.1,1.4-3.1,3.1
				C324.2,191.9,325.6,193.3,327.3,193.3z"/>
			<path class="st3" d="M352.1,199.7c0,0,5-0.6,6.1-6c1.1,5.4,6.1,6,6.1,6s-5,0.6-6.1,6C357.1,200.4,352.1,199.7,352.1,199.7z"/>
			<path class="st5" d="M329.1,211.7c0,0,5-0.6,6.1-6c1.1,5.4,6.1,6,6.1,6s-5,0.6-6.1,6C334.1,212.3,329.1,211.7,329.1,211.7z"/>
		</g>
		<g>
			<g>
				<path class="st3" d="M208.8,9.7c22.8,0,45.5,5.8,60.6,17.3c35.7,27.4,49.9,69.1,33.3,112.1c-1,2.7-2.9,4.8-5.2,6.1
					c0.5,6.8-0.3,14.1-1.9,20c-1.9,7.1-5,13.4-9,19c0.4,1.1,0.6,2.3,0.7,3.6c0.2,4.8-0.4,10.3-1.5,14.9c-0.2,0.9-0.3,1.8-0.4,2.7
					c-0.9,7.6-1.6,15-8.8,19.6c-2.7,1.7-6.5,3.1-7.7,6.2c-0.9,2.4-2.5,4.4-4.4,5.7c0.2,1.4,0.3,2.7,0.4,4c0.9,3,0.9,6.2,0.1,9.2
					c-0.9,3.1-2.6,5.3-4.7,7.3c0,0,0.6,10.1,11.9,11.3c1.7-0.8,3.5-1.3,5.5-1.3c23.2,0.2,45.1,7.7,59.2,26.8
					c5.5,7.4,10.5,18.2,11.7,27.6c0.3,2.3-0.1,4.6-1,6.6c1.4,1.6,2.5,3.1,3.3,4.5c2.2,4,2.5,9,1.5,13.4c2.5,2.5,4.5,5.3,5.5,7.8
					c1.5,3.8,1.1,8.9,0.3,13.4c3.2,2.6,5.8,5.8,6.8,9c1,3.5,1.7,6.6,1.1,10.2c-0.7,4.3-3.6,8-4.8,11.9c-1.7,7.5-8.4,12.2-15.7,13.2
					c-0.1,0-0.3,0-0.4,0c-2.5,2.8-5.5,5-9.8,6.6c-5.9,2.2-12.4,1.4-17.3-2.8c-2.1-1.8-3.7-4.2-4.6-6.7c-1.2-0.5-2.3-1.1-3.4-1.8
					c-2.6,0.3-5.2,0-7.7-1c-2.9-1.1-5.4-3.1-7.1-5.8c-2.7-4.3-2.3-8.1-1.5-12.2c0,0-21.3,22.8-84.8,41.1
					C145.3,411,124,388.2,124,388.2c0.8,4.1,1.2,7.8-1.5,12.2c-1.7,2.7-4.1,4.6-7.1,5.8c-2.5,1-5.1,1.2-7.7,1
					c-1,0.7-2.2,1.4-3.4,1.8c-0.9,2.6-2.5,4.9-4.6,6.7c-4.8,4.2-11.3,5-17.3,2.8c-4.3-1.6-7.3-3.8-9.8-6.6c-0.1,0-0.3,0-0.4,0
					c-7.3-1-14-5.7-15.7-13.2c-1.1-4-4-7.6-4.8-11.9c-0.6-3.6,0.1-6.8,1.1-10.2c1-3.2,3.6-6.5,6.8-9c-0.8-4.6-1.2-9.6,0.3-13.4
					c1-2.5,3-5.3,5.5-7.8c-1-4.4-0.7-9.4,1.5-13.4c0.8-1.4,1.9-2.9,3.3-4.5c-0.9-2-1.3-4.2-1-6.6c1.2-9.3,6.2-20.1,11.7-27.6
					c14.2-19.1,36.1-26.7,59.2-26.8c2,0,3.8,0.4,5.5,1.3c11.2-1.2,11.9-11.3,11.9-11.3c-2.1-2-3.8-4.2-4.7-7.3
					c-0.8-3-0.8-6.2,0.1-9.2c0.1-1.3,0.2-2.7,0.4-4c-2-1.4-3.5-3.3-4.4-5.7c-1.2-3.2-5-4.5-7.7-6.2c-7.2-4.6-8-11.9-8.8-19.6
					c-0.1-0.9-0.2-1.8-0.4-2.7c-1.1-4.6-1.7-10.2-1.5-14.9c0-1.3,0.3-2.5,0.7-3.6c-4-5.6-7.1-11.9-9-19c-1.6-5.9-2.4-13.2-1.9-20
					c-2.3-1.3-4.1-3.4-5.2-6.1C98.3,96.1,112.5,54.4,148.2,27C163.3,15.4,186,9.7,208.8,9.7z"/>
				<path class="st2" d="M133.9,59.4c-12.3,18-20.1,43.5-7.7,75.3c0,0,2.2-4.9,2.6-10C117.2,90.6,133.4,60.3,133.9,59.4z"/>
				<path class="st2" d="M146.8,198.4c-0.4-2.1-0.8-4.4-1-7c0,0-1.9-1.3-3.5-3.2c0,0-0.2,6,1.2,11.5c1.4,5.5,0.5,12.8,4,15
					c2,1.2,4.7,2.5,7.3,4.7c-1.8-4.3-6.1-5.5-7.1-9.9C146.7,204.5,147.7,203.9,146.8,198.4L146.8,198.4z"/>
				<path class="st4" d="M189.8,187.2c-24.3,0.2-43.1-8.3-57-29.3C137.5,182,164.7,198.6,189.8,187.2z"/>
				<path class="st4" d="M155.6,36.5c-2.7,2-5.5,4.4-8.4,7.2c22.3-10.9,43.4-7.2,43.4-7.2c-48.8,31.7-27.7,79-18.4,95.1
					c6.9,3.2,13.5,8.3,18,16.2c0,0-29.3-23.3-56.8-7.9c0,0,3.8,8.6,9.4,15.8c-1-4.5-0.9-7.7-0.9-7.7c42.8-8.5,47.3,25.1,52,28.7
					c4.8,3.6,9.3,1.2,9.3,1.2c1.1,5.4-5.9,7.9-5.9,7.9c3.2-0.4,5.5,1.5,5.5,1.5c-7.5,3.4-7.1,8.1-10.8,10.8
					c-0.1,0.1-0.2,0.1-0.3,0.2c-1.3,0.9-6.8,5.4-2.3,10.5l2.9,0.1l1.9,2.2c-3.7,7.6-6.9,13.2-5.6,27.4c0-0.2,3-2.5,2.7,1.3
					c-0.6,6,5.1,5.9,8.5,5.5c10.4-1.3,8.5,3.3,9,4c0.6,0.7,1.8,5.5,1.8,5.5s-5.7,1-7.2,8.9c0,0-6.9,3.7-13.9,0.1
					c1.4,1.6,2.8,2.7,5.2,3.5c4.5,1.5,9-1.1,14.1-1.3c5.1,0.1,9.7,2.8,14.1,1.3c5.1-1.7,5.7-4.4,10.4-10.5
					c4.6-6.1,11.2-5.9,11.2-5.9c-3,1.7-6.3,6.5-6.3,6.5s4.8,0.3,6.8-2.6c2-2.8,7.6-6.1,8.1-8c0.5-1.9-0.4-3.5-0.4-3.5
					c-0.9-22.6-14.2-34.2-14.2-34.2c13.1,3.6,18.8,17.7,18.8,17.7c2.9-7.7,9-10,12.6-12.2c3.5-2.2,2.7-9.5,4-15
					c1.4-5.5,1.2-11.5,1.2-11.5c-1.5,1.9-3.5,3.2-3.5,3.2c-1.9,23-12.9,24.3-12.9,24.3c6.3-7,4.9-15.5,4.9-15.5s-3.2-0.5-3.7,2.4
					c-0.5,2.9-2.1,4.1-2.1,4.1c-1.8-7.1-11.6-6.2-11.6-6.2c49.4-22.1,38-60.4,38-60.4c-27.6-15.4-56.8,7.9-56.8,7.9
					c13.6-24.4,47.7-21.7,47.7-21.7c13.2-12.8,13.5-33.6,13.5-33.6c3.1,13.1,0.7,22.9,0.1,29c-0.6,6.1,2.6,13.2,2.6,13.2
					c19.2-49.4-10.2-83.4-29.4-98.1C236.3,16.8,181.3,16.8,155.6,36.5L155.6,36.5z M214.6,177.9c0,0,4.5,2.4,9.3-1.2
					c4.8-3.6,9.3-37.3,52-28.7c0,0,1.1,39.6-48.1,39.2c0,0-0.6,8.6,8.1,12.1c0,0-6.6,1.4-10.2-1.2c-3.6-2.7-3.2-7.4-10.8-10.8
					c0,0,2.3-1.9,5.5-1.5C220.5,185.8,213.6,183.4,214.6,177.9z"/>
				<path class="st6" d="M262.6,209.3c1.8-5,1.1-9.2,1.1-9.2s-3.2-0.5-3.7,2.4c-0.5,2.9-2.1,4.1-2.1,4.1c-0.8-3.1-3.1-4.7-5.5-5.5
					c-1.6,2.3-3.4,6.3-1.3,11.9C251.2,212.9,257.4,215.4,262.6,209.3z"/>
				<path class="st3" d="M213.5,218.3c0,0-1.6,1.6-1.2,3.8c0.5,2.1,1.8,6-0.5,7.5c0,0,5,0.8,5.7-2.3
					C217.6,227.2,213.9,221.9,213.5,218.3z"/>
				<path class="st3" d="M225.6,251.2c0,0-3.9-1.3-6.2-0.9c-4.5,6.1-16.7,6.1-21.2,0c-2.3-0.4-6.2,0.9-6.2,0.9
					C198.7,241.2,218.9,241.2,225.6,251.2z"/>
				<path class="st3" d="M204.1,218.3c0,0,1.6,1.6,1.2,3.8c-0.5,2.1-1.8,6,0.5,7.5c0,0-5,0.8-5.7-2.3
					C200,227.2,203.7,221.9,204.1,218.3z"/>
				<path class="st4" d="M262.9,289.4c0,0,4.5,6.3,4.4,11.5c0,0,5.6-1.4,7.5-1.6C274.8,299.3,270.7,291.1,262.9,289.4z"/>
				<path class="st4" d="M276.7,289.4c0,0,4.8,3.5,6.2,8.3c0,0,6.6-2.6,11.9-0.8C294.8,296.9,288.1,290.3,276.7,289.4z"/>
				<path class="st6" d="M277.4,279.5c0,0,18.8,4.2,27.6,17c0,0,7.7,1.1,9.9,3.7c2.2,2.7,8.2,12.8,12.6,15.6c4.4,2.9,7,2.6,9,7.5
					C336.4,323.3,331,279.9,277.4,279.5z"/>
				<path class="st4" d="M297,332.1c0,0-4,3.1-7.1,7.1c-3,3.9-10.1,7.7-15.8,5.2c0,0,6.7-0.7,8.7-4.3c0,0-6.4-3.5-10.3-7
					c-3.9-3.5-7.3-4.2-10.5-1.1c-3.1,3-3.3,7-6.4,9.6c0,0,5,0.4,6,4c0,0-5.1-2.8-7.7-1.5c-2.6,1.3-1.3,1.9-4.4,3.8
					c-3.1,1.9-2.1,6.5,5.2,6.9c7.3,0.4,9.3-3.9,10.5-7.5c1.3-3.6,4.5-6.2,4.5-6.2s1.5,2.7,1.3,5.9c-0.2,3.2,1.8,7.6,9.3,10.9
					c7.5,3.3,21.1,8.6,21.6,17.7c0,0,1.6-4.5,4.3-7.8c2.7-3.3,12.5-13.3,12.5-13.3s-4.7-0.4-9.5,2.7c-4.8,3.1-14.3,4.4-21,0.6
					c-6.7-3.8-5.6-8.1-3.8-10.3c1.8-2.2,8.6-6.9,10.2-9C296.2,336.2,297,332.1,297,332.1z"/>
				<g>
					<path class="st4" d="M292.5,302.6c0,0-8.7,2.8-14.7,3c-6.1,0.2-9.3,0.4-7.6,4.1c1.7,3.7,10.2,5.7,15.1,3.6
						c4.9-2.1,10-5.4,13.9-1.8c0,0-3.4-0.5-4.7,0.9c0,0,2.5,3,6.5,4.5c3.9,1.5,5.5,1.2,6.8,2.9c0,0-2.6,1.9-5.5,0.5
						c0,0-1.4,5.8,3.2,7.6c4.5,1.8,12.8-4.2,16.3-3.7c0,0-6.3-7.2-8.7-11.4c-2.4-4.3-1.6-6.1-6.8-7.2c-5.2-1.1-7.2-1.5-9.4-2.5
						C294.6,302,292.5,302.6,292.5,302.6z"/>
					<path class="st4" d="M322.2,349.5c0,0,1.5-2,3.2-2.4c1.8-0.4,7.5-2.2,10.3-3.3c2.9-1.1,4.6-0.1,4.6-0.1s0.8-3.2-0.2-5
						c-1-1.8-7.8-8.8-11.5-10.1c-3.7-1.2-12.2,2.9-16.1,3.8c-3.9,0.9-5.2,1.2-5.2,2.4c0,1.3,2,5.1,4,6.4c0,0-4.5-0.6-7.9-5.8
						c0,0-1.1,2.8,2.9,5.5c4,2.7,6.1,3.5,5.3,4.2c-0.8,0.6-7.6-0.7-10-3c-2.4-2.3-3.9-1.3-4.5-0.7c-0.6,0.6-6.4,5.2-8.7,6.5
						c-2.3,1.3,3.2,7,11.5,6c8.2-1,14.8-10.6,17.9-12.1c3-1.5,9.8-1.9,13.8-0.7c0,0-4.5,2.2-7.8,3.3
						C320.8,345.6,322.2,349.5,322.2,349.5z"/>
					<path class="st4" d="M345.1,369.5c0,0,2.1-8.9,1.3-11.1c-0.9-2.2-6.3-7.4-8.7-7.9c-2.3-0.5-8.1,1-9.3,1.6
						c-1.2,0.6-10.9,12.9-14.5,15.9c-3.6,3-4.1,4.5-4.4,5.5c0,0,5.1,1.6,5.9,4.6c0,0-6.2-1.4-8,0.1c-1.8,1.4-0.1,2.2-1.1,7.8
						c-1.1,5.6-2.4,8,0.1,8.9c2.5,1,7.5-1.1,9.3-5.5c1.8-4.4,2.6-10.3,4.2-11.8c1.5-1.5,11.1-7.9,14.8-12.8c3.7-4.9,3.9,0.4,2.7,2.6
						c-1.3,2.2-10.7,10.2-12.7,12.3c-2,2.2,0.2,8.9-8.4,17c0,0,1.8,1.7,3.9,1.3c0,0,1.7-5.1,4-7.8c2.3-2.8,8.7-15.4,11.5-17.6
						C338.6,370.5,345.1,369.5,345.1,369.5z"/>
					<path class="st4" d="M344.9,385.5c0,0-1.7-5.5-6.6-7.8c0,0,0.4-1.8,1.9-2.4c1.4-0.7,4.3-1.1,5.7-0.8c1.5,0.3,6.7,3.4,7.3,5.5
						c0.6,2.1,1,3.5,0.7,4.8c-0.2,1.3-3.9,8-4.6,11.3c-0.7,3.2-5.5,3.9-5.5,3.9s4.3-6,2.6-7.1c-1.8-1.2-3.6,0.7-6.1,4.8
						c-2.5,4.2-4.5,7.8-9.3,9.6c-4.8,1.8-6.8-2-6.6-3.7c0.2-1.7,0.5-2.7,0.5-3.6c-0.1-0.9,5.2,0,5.7,1.8c0,0,1.3-3.4-4-4.9
						c0,0,0.1-1.9,0.6-2.7c0.5-0.7,5.4-9.2,6.5-11.1C334.9,380.9,337.6,379.6,344.9,385.5z"/>
				</g>
				<path class="st2" d="M147.5,375.1c0.7,2.5,1.9,5.3,3.6,6.8c1.6,1.4,3.8,2.8,6.8,3.8c-1-1.5-1.7-3.2-2.2-4.7
					C152.7,379.5,149.9,377.6,147.5,375.1z"/>
				<path class="st4" d="M208.8,274.4c-2.3,0.5-5.1,1.1-6.6,1.4c-2.8,0.7-5.5-1.1-5.5-1.1s2.9,9.7,2.4,14.1
					c-0.4,4.4-1.4,4.9-1.4,4.9s-3.4-21.6-16.1-24.9c0,0-1.3,9.5-9,16.5c-3,0.4-6.8,1.3-7.7,4.8c-1.3,5.3,2,14.2,14.8,18.2
					c20,6.2,16.2,6.4,16.2,6.4c-23.8-2.8-25.5,4-28.6,25.2c1.3,1.7,2.6,3.3,3.9,4.5c5,4.9,2.2,12.6-5.5,14.4
					c2.2,15.3,6.2,15.3,16.2,11.1c0,0-0.7,5.4,3.1,9.1c3.8,3.7,9.4-0.2,9.4-0.2s-2.9,7.6-11,12.4c1.9,6.6,10.2,4.6,14.1,1.1
					c-1.3,5.3-5.7,7-1.8,13.8c3.4,1.9,7.9,4.1,13.1,5.6c11.4-3.3,19.7-9.9,19.7-9.9c-6.9-3-8.5-9.4-8.5-9.4
					c3.5,3.2,8.5,4.6,14.4,5.1c5.9,0.4,8.5-2.9,8.5-2.9c-14.8-2.7-19.8-15.6-19.8-15.6c5.4,4.5,16.1,8.6,25.8,8.4
					c9.7-0.2,14.5-2.7,17.6-5.3c3.1-2.7,4.4-9.2,4.4-11.1c0-1.9,1.2-5.2,5.3-3.5c4.1,1.7,7.1,6.1,7.1,6.1c5.5-1.5,10.3,2.7,10.3,2.7
					c-0.7-6.3-14.6-11.7-19.5-15.4c-4.9-3.7-6-7.5-6-7.5c-1.2,2.1-7.6,7.3-15.6,5.7c-8.1-1.6-11.1-9.5-6-14.5
					c5.1-5,10.3-14.8,13.5-17.6c3.1-2.8,9.3-3.6,15.6,1.1c6.3,4.7,12.4,4.7,12.4,4.7c2.4-5.4,7.3-4.3,8.7-9c1.4-4.7-5.3-6.6-5.3-6.6
					s-2.8,0.6-11.4,1.5c-8.6,0.9-13-4.4-13-4.4c-0.7,3.4-4.9,5.1-4.9,5.1c1.9-20.4-5.2-27.1-14.2-33.4c-8.9-6.3-11.8-16.9-11.8-16.9
					c-12.7,3.3-16.1,24.9-16.1,24.9s-1-0.5-1.4-4.9c-0.4-4.4,2.4-14.1,2.4-14.1s-2.7,1.9-5.5,1.1
					C213.9,275.5,211.1,274.9,208.8,274.4z"/>
				<path class="st2" d="M91.2,315.1c-0.3,0.3-0.7,0.5-1,0.8c-4.4,2.9-7,2.6-9,7.5c0,0,5.4-43.4,59.1-43.9
					C140.2,279.5,102.2,281.9,91.2,315.1z"/>
				<path class="st4" d="M125.1,302.6c0,0,8.7,2.8,14.7,3c6.1,0.2,9.3,0.4,7.6,4.1c-1.7,3.7-10.2,5.7-15.1,3.6
					c-4.9-2.1-10-5.4-13.9-1.8c0,0,3.4-0.5,4.7,0.9c0,0-2.5,3-6.5,4.5c-3.9,1.5-5.5,1.2-6.8,2.9c0,0,2.6,1.9,5.5,0.5
					c0,0,1.4,5.8-3.2,7.6c-4.5,1.8-12.8-4.2-16.3-3.7c0,0,6.3-7.2,8.7-11.4c2.4-4.3,1.6-6.1,6.8-7.2c5.2-1.1,7.2-1.5,9.4-2.5
					C123,302,125.1,302.6,125.1,302.6z"/>
				<path class="st4" d="M95.4,349.5c0,0-1.5-2-3.2-2.4c-1.8-0.4-7.5-2.2-10.3-3.3c-2.9-1.1-4.6-0.1-4.6-0.1s-0.8-3.2,0.2-5
					c1-1.8,7.8-8.8,11.5-10.1c3.7-1.2,12.2,2.9,16.1,3.8c3.9,0.9,5.2,1.2,5.2,2.4c0,1.3-2,5.1-4,6.4c0,0,4.5-0.6,7.9-5.8
					c0,0,1.1,2.8-2.9,5.5c-4,2.7-6.1,3.5-5.3,4.2c0.8,0.6,7.6-0.7,10-3c2.4-2.3,3.9-1.3,4.5-0.7c0.6,0.6,6.4,5.2,8.7,6.5
					c2.3,1.3-3.2,7-11.5,6c-8.2-1-14.8-10.6-17.9-12.1c-3-1.5-9.8-1.9-13.8-0.7c0,0,4.5,2.2,7.8,3.3
					C96.8,345.6,95.4,349.5,95.4,349.5z"/>
				<path class="st4" d="M120.6,332.1c0,0,4,3.1,7.1,7.1c3,3.9,10.1,7.7,15.8,5.2c0,0-6.7-0.7-8.7-4.3c0,0,6.4-3.5,10.3-7
					c3.9-3.5,7.3-4.2,10.5-1.1c3.1,3,3.3,7,6.4,9.6c0,0-5,0.4-6,4c0,0,5.1-2.8,7.7-1.5c2.6,1.3,1.3,1.9,4.4,3.8
					c3.1,1.9,2.1,6.5-5.2,6.9c-7.3,0.4-9.3-3.9-10.5-7.5c-1.3-3.6-4.5-6.2-4.5-6.2s-1.5,2.7-1.3,5.9c0.2,3.2-1.8,7.6-9.3,10.9
					c-7.5,3.3-21.1,8.6-21.6,17.7c0,0-1.6-4.5-4.3-7.8c-2.7-3.3-12.5-13.3-12.5-13.3s4.7-0.4,9.5,2.7c4.8,3.1,14.3,4.4,21,0.6
					c6.7-3.8,5.6-8.1,3.8-10.3c-1.8-2.2-8.6-6.9-10.2-9C121.4,336.2,120.6,332.1,120.6,332.1z"/>
				<path class="st4" d="M72.5,369.5c0,0-2.1-8.9-1.3-11.1c0.9-2.2,6.3-7.4,8.7-7.9c2.3-0.5,8.1,1,9.3,1.6
					c1.2,0.6,10.9,12.9,14.5,15.9c3.6,3,4.1,4.5,4.4,5.5c0,0-5.1,1.6-5.9,4.6c0,0,6.2-1.4,8,0.1c1.8,1.4,0.1,2.2,1.1,7.8
					c1.1,5.6,2.4,8-0.1,8.9c-2.5,1-7.5-1.1-9.3-5.5c-1.8-4.4-2.6-10.3-4.2-11.8c-1.5-1.5-11.1-7.9-14.8-12.8
					c-3.7-4.9-3.9,0.4-2.7,2.6c1.3,2.2,10.7,10.2,12.7,12.3c2,2.2-0.2,8.9,8.4,17c0,0-1.8,1.7-3.9,1.3c0,0-1.7-5.1-4-7.8
					c-2.3-2.8-8.7-15.4-11.5-17.6C79,370.5,72.5,369.5,72.5,369.5z"/>
				<path class="st4" d="M72.7,385.5c0,0,1.7-5.5,6.6-7.8c0,0-0.4-1.8-1.9-2.4c-1.4-0.7-4.3-1.1-5.7-0.8c-1.5,0.3-6.7,3.4-7.3,5.5
					c-0.6,2.1-1,3.5-0.7,4.8c0.2,1.3,3.9,8,4.6,11.3c0.7,3.2,5.5,3.9,5.5,3.9s-4.3-6-2.6-7.1c1.8-1.2,3.6,0.7,6.1,4.8
					c2.5,4.2,4.5,7.8,9.3,9.6c4.8,1.8,6.8-2,6.6-3.7c-0.2-1.7-0.5-2.7-0.5-3.6c0.1-0.9-5.2,0-5.7,1.8c0,0-1.3-3.4,4-4.9
					c0,0-0.1-1.9-0.6-2.7c-0.5-0.7-5.4-9.2-6.5-11.1C82.8,380.9,80,379.6,72.7,385.5z"/>
				<path class="st3" d="M195.4,307.2c0,0-2-7-4.2-8.6c-2.2-1.6-5.2-3.2-5.8-6.3c-0.6-3.1,2.7-7,1.9-11.7c-0.8-4.6-3.4-6.5-3.4-6.5
					s1.5,5.7,0.6,9.3c-1,3.6-4.7,4.7-3.4,10.5c0,0-4.8-1.5-6.1-4.6c0,0-0.9,3.8,2.9,6.7c3.8,2.9,10.2,3.5,12.5,6.6
					C192.8,305.7,195.4,307.2,195.4,307.2z"/>
				<path class="st5" d="M154.9,159.5c2.1,0,3.9-1.7,3.9-3.9c0-2.1-1.7-3.9-3.9-3.9c-2.1,0-3.9,1.7-3.9,3.9
					C151.1,157.8,152.8,159.5,154.9,159.5z"/>
				<path class="st5" d="M165.2,159.4c1.1,0,2.1-0.9,2.1-2.1c0-1.2-0.9-2.1-2.1-2.1c-1.2,0-2.1,0.9-2.1,2.1
					C163.1,158.5,164,159.4,165.2,159.4z"/>
				<g>
					<path class="st2" d="M173.7,175.6c-14.7-3.4-19.2-12.5-21.2-11.4c-0.5,0.3,1.1,7,12.4,12.2
						C173.4,180.4,183.1,177.8,173.7,175.6z"/>
					<path class="st2" d="M243.9,175.6c14.7-3.4,19.2-12.5,21.2-11.4c0.5,0.3-1.1,7-12.4,12.2C244.2,180.4,234.5,177.8,243.9,175.6z
						"/>
				</g>
				<path class="st2" d="M179,209.2c0,0-13.3,11.6-14.2,34.2c0,0-0.9,1.5-0.4,3.5c0.4,1.3,2.9,3.1,5.2,5
					C166.7,225.7,179,209.2,179,209.2z"/>
				<path class="st5" d="M262.7,159.5c2.1,0,3.9-1.7,3.9-3.9c0-2.1-1.7-3.9-3.9-3.9c-2.1,0-3.9,1.7-3.9,3.9
					C258.8,157.8,260.6,159.5,262.7,159.5z"/>
				<path class="st5" d="M252.4,159.4c1.2,0,2.1-0.9,2.1-2.1c0-1.2-0.9-2.1-2.1-2.1c-1.1,0-2.1,0.9-2.1,2.1
					C250.3,158.5,251.3,159.4,252.4,159.4z"/>
				<g>
					<path class="st3" d="M200.7,347.6c0,0-4.7,3.4-5.3,6c-0.5,2.6,0,5.7-5.1,7.8c-14.3,5.8-29.8,10-41.1,2.3c0,0,3.7,6.9,5.7,8.5
						c2.1,1.5,10.6,3.7,14.2,4.2c3.5,0.5,24.4-6,29.5-12.9c2.7-3.6,0.4-8.1,0.3-10.6C198.9,350.4,200.7,347.6,200.7,347.6z"/>
					<path class="st3" d="M216.9,347.6c0,0,4.7,3.4,5.3,6c0.5,2.6,0,5.7,5.1,7.8c14.3,5.8,29.8,10,41.1,2.3c0,0-3.7,6.9-5.7,8.5
						c-2.1,1.5-10.6,3.7-14.2,4.2c-3.5,0.5-24.4-6-29.5-12.9c-2.7-3.6-0.4-8.1-0.3-10.6C218.7,350.4,216.9,347.6,216.9,347.6z"/>
				</g>
				<path class="st6" d="M204.7,21.8c35.3,12.9,70.5,41.6,54.5,105.5c9-1.7,16.1-1.2,16.1-1.2c13.2-12.8,13.5-33.6,13.5-33.6
					c3.1,13.1,0.7,22.9,0.1,29c-0.6,6.1,2.6,13.2,2.6,13.2c19.2-49.4-10.2-83.4-29.4-98.1C248.3,26,226.2,21.1,204.7,21.8z"/>
				<path class="st6" d="M297.4,97.2c-2.2,1.9-4.6,3.7-7.2,5.2c-0.2-3-0.6-6.3-1.5-9.9c0,0-0.1,5-1.7,11.6
					c-6.9,3.5-14.8,5.5-23.1,5.5c-28.2,0-51.1-22.9-51.1-51.1c0-13.8,5.5-26.3,14.3-35.5c13.5,2.1,26,6.6,34.9,13.4
					C275.9,47.1,295.1,67.9,297.4,97.2z"/>
				<path class="st5" d="M260.4,44.4c27.5,20.5,28.7,57.7,14.9,36.1c-7.6-11.9-9.9-15.8-22.6-22.4C223.8,43.2,228.8,20.8,260.4,44.4
					z"/>
				<path class="st6" d="M139.2,137.2c0.1,0.1,3.7,3.3,7.9,2.8c22.7-2.6,44.8,17.1,46.5,15c1-1.2,0-3.7-3.6-7.2
					C190,147.9,164.8,127.8,139.2,137.2z"/>
				<path class="st6" d="M224,155c-1-1.2,0-3.7,3.6-7.2c0,0,3.5-2.8,9.1-5.8l0,0c10.8-5.7,29.6-12.2,47.7-2.1c0,0,4.3,14.3-3.8,30.5
					c4-13.3-1-27-1-27C256.1,131.5,224.6,155.7,224,155z"/>
				<g>
					<path class="st6" d="M222,159.9c0,0-2.6,3.2-5.5,8.5c-3,5.3-5.3,3.8-5.3,3.8S211.4,160,222,159.9z"/>
					<path class="st6" d="M195.6,159.9c0,0,2.6,3.2,5.5,8.5c3,5.3,5.3,3.8,5.3,3.8S206.3,160,195.6,159.9z"/>
				</g>
				<path class="st5" d="M270.8,198.4c0.4-2.1,0.8-4.4,1-7c0,0,1.9-1.3,3.5-3.2c0,0,0.2,6-1.2,11.5c-1.4,5.5-0.5,12.8-4,15
					c-2,1.2-4.7,2.5-7.3,4.7c1.8-4.3,6.1-5.5,7.1-9.9C270.9,204.5,269.9,203.9,270.8,198.4L270.8,198.4z"/>
				<path class="st6" d="M214.6,177.9c0,0-4.6,3.2-3.5,8.1c0,0-1.2,0.3-2.4,1.6c0,0-3.7,7.1-2.1,15.2c2.9,1.3,4.6-0.3,7.6-0.9
					c3.1-0.6,3.2,1.2,6.8,4c3.6,2.9,7.4,3.8,10.8,1.2c0,0,0.8-2.9-1.8-5.6c0,0,3.4,0.6,5.9-2.3c0,0-6.6,1.4-10.2-1.2
					c-3.6-2.7-3.2-7.4-10.8-10.8c0,0,2.3-1.9,5.5-1.5C220.5,185.8,213.6,183.4,214.6,177.9L214.6,177.9z M193.1,199.6
					c-0.7-0.3-1.6-0.5-2.5-0.5c-1.9,1.7-4.9,5.5-1.2,9.7l1.1,0c1.3-0.7,2.7-1.6,4-2.5C194.4,206.4,196.1,203.2,193.1,199.6z"/>
				<path class="st3" d="M213.8,216c0,0-2.2-1.7-1.6-4c0.6-2.3,1.8-2.9,1.8-5.4c0-2.4,3.2-4.3,5.3-3.4c2,0.9,5.3,6.5,12.6,4
					c0,0-2.4,5.8-10.3,3.5c0,0-0.5,3.2-5.5,2.1C216,212.8,213.5,213.8,213.8,216z"/>
				<path class="st3" d="M203.8,216c0,0,2.2-1.7,1.6-4c-0.6-2.3-1.8-2.9-1.8-5.4c0-2.4-3.2-4.3-5.3-3.4c-2,0.9-5.3,6.5-12.6,4
					c0,0,2.4,5.8,10.3,3.5c0,0,0.5,3.2,5.5,2.1C201.6,212.8,204.1,213.8,203.8,216z"/>
				<path class="st5" d="M209.4,198.6c1.9,4.7,6.4-6.4,2-7.3C209.1,190.9,208.7,196.9,209.4,198.6z"/>
				<path class="st6" d="M238.6,209.2c0,0,1.9,5.1,2.6,11.2c0,0-5.2-3.1-9-3.1c-3.8,0-6.1-2.4-6.1-2.4c-5.2-0.7-8.1,2.7-5.5,7.4
					c9.1,16.2,9.6,2.3,18,10.4c3.1,3,1.4,6.7,1.4,6.7s10.2,5.6,4.4,11.4c-3,1.7-6.3,6.5-6.3,6.5s4.8,0.3,6.8-2.6
					c2-2.8,7.6-6.1,8.1-8c0.5-1.9-0.4-3.5-0.4-3.5C251.9,220.8,238.6,209.2,238.6,209.2z"/>
				<path class="st3" d="M205.2,233.5c-2.3-0.9-5.8-1.8-7.7-1.2c-2,0.6-3.9,1.9-10.9,2.4c-7,0.5-9.7,1-10.8,4.1
					c-1.1,3.1,2.1,4.4,4.1,4.3c0,0-2.3-1.9-0.1-2.9c2.2-1,6.8,1.3,12.9-0.9c6.1-2.2,6.6-2.6,10.4-1c4.4,1.8,7.2,1.8,11.6,0
					c3.8-1.5,4.3-1.2,10.4,1c6.1,2.2,10.7-0.1,12.9,0.9c2.2,1-0.1,2.9-0.1,2.9c2,0.1,5.1-1.2,4.1-4.3c-1.1-3.1-3.8-3.6-10.8-4.1
					c-7-0.5-8.9-1.8-10.9-2.4c-2-0.6-5.5,0.3-7.7,1.2C210.9,234.2,206.7,234.2,205.2,233.5z"/>
				<path class="st5" d="M238.6,209.2c0,0,13.3,11.6,14.2,34.2c0,0,0.9,1.5,0.4,3.5c-0.4,1.3-2.9,3.1-5.2,5
					C250.9,225.7,238.6,209.2,238.6,209.2z"/>
				<path class="st6" d="M207.5,266L207.5,266c0,0,2.8-2.6,7.5-1.8c0,0,3.4-9.2,12.8-4.8c0,0,4.4-4.1,7.1-4.4
					c-0.5,0.5-1.1,1.1-1.6,1.8c-4.6,6.1-5.3,8.8-10.4,10.5c-4.5,1.5-9-1.1-14.1-1.3C208.4,265.9,207.9,266,207.5,266z"/>
				<path class="st5" d="M277.4,279.5c0,0,46,3.3,54.6,38.9c1.9,1,3.3,2.1,4.5,5C336.4,323.3,331,279.9,277.4,279.5z"/>
				<path class="st6" d="M228.3,299c0,0-2.2,2.3-2.3,2.7c-0.1,0.4-3.8,5.5-3.8,5.5s2.5-0.9,4.8-2c2.3-1.2,6,3.5,5.8,4.8
					c-0.2,1.3,6.2-1.3,6.2-1.3s7.5-2.4,11.8-6c2.9-2.5,8.1,1.3,11.1,5.3c-1.2-12.1-7.2-17.4-14.2-22.3c-5.9-4.2-9.2-10.2-10.7-13.8
					h0c0,0-2.1,0.3-3.3,2.2c-1.3,2-2.8,7.8-1.4,11C233.6,288.2,234,295.4,228.3,299z"/>
				<path class="st3" d="M222.2,307.2c0,0,2-7,4.2-8.6c2.2-1.6,5.2-3.2,5.8-6.3c0.6-3.1-2.7-7-1.9-11.7c0.8-4.6,3.4-6.5,3.4-6.5
					s-1.5,5.7-0.6,9.3c1,3.6,4.7,4.7,3.4,10.5c0,0,4.8-1.5,6.1-4.6c0,0,0.9,3.8-2.9,6.7c-3.8,2.9-10.2,3.5-12.5,6.6
					C224.8,305.7,222.2,307.2,222.2,307.2z"/>
				<path class="st5" d="M238.6,275.3L238.6,275.3c0,0,1.5,6.1,5.7,10.2c4.2,4,4.3,6.8,4.3,6.8s3.6,7.5,10.7,5.7
					c-2.6-5.5-6.9-8.9-11.6-12.3C243.4,282.7,240.5,278.6,238.6,275.3z"/>
				<path class="st6" d="M195.6,314.7c0.2,0.1,4.6,1.7,7.9,4.5c0,0-14-1-18.2,3.9c-3.2,3.8-9.6,10.6-16.8,9.5
					C171.4,317.3,175.2,312.3,195.6,314.7z"/>
				<path class="st3" d="M203.5,319.1c0,0-11.2-3.9-21.6-5.4c-10.4-1.5-22.7,2.4-22.7,2.4s5.6-4.7,13.9-6.5c0,0-4.7-2.1-6.4-6.9
					c0,0,6.8,3,14,4.6C188,309,197.6,312.5,203.5,319.1z"/>
				<path class="st6" d="M214.1,319.1c0,0,11.8-2,16.5,0.6c4.7,2.7,9.8,7.2,23.5,1.3c0,0,4.3,1.9,5.8,5.7c0.8-0.7,1.9-1.3,3.1-1.6
					c-0.6-1.7-1.2-4.3-1.1-5.9c0,0-1.4-1.8-3.5-3c0,0-12.2-3.9-22.7-2.4C225.3,315.2,214.1,319.1,214.1,319.1z"/>
				<path class="st6" d="M256.6,315.2c-0.1,8.6-7.1,15.6-15.8,15.6c-8.7,0-15.8-7.1-15.8-15.8c0-0.4,0-0.9,0.1-1.3
					C235.4,311.4,247.4,310.6,256.6,315.2z"/>
				<path class="st3" d="M214.1,319.1c0,0,11.2-3.9,21.6-5.4c10.4-1.5,22.7,2.4,22.7,2.4s-5.6-4.7-13.9-6.5c0,0,4.7-2.1,6.4-6.9
					c0,0-6.8,3-14,4.6C229.6,309,220,312.5,214.1,319.1z"/>
				
					<ellipse transform="matrix(8.248036e-02 -0.9966 0.9966 8.248036e-02 -123.1113 542.9853)" class="st6" cx="233.3" cy="338.4" rx="5.2" ry="5.2"/>
				<path class="st6" d="M223.1,378.8c0,0,34.6,9.5,46.4-2.1c-0.7,2-1.7,4-3.1,5.1c-3.1,2.7-7.9,5.1-17.6,5.3
					C239.2,387.4,228.6,383.2,223.1,378.8L223.1,378.8z M242.9,394.4c0,0-6.9,2-11.8-0.2c0,0-6.4-4.7-11.1-1.9
					c3.5,3.2,8.5,4.6,14.4,5.1C240.3,397.7,242.9,394.4,242.9,394.4z"/>
				<g>
					<g>
						<path class="st6" d="M270.9,306.3c0,0,0,2.5,5.4,3c5.5,0.5,11.1-2.2,15.5-2.6c4.5-0.4,7.2,0.5,7.9,1.1
							c0.7,0.5,6.8,3.1,8.9,5.9c1.9,2.5,3.4,10.2,5.8,12.6c2.8-1.1,5.5-2.3,7.2-2.1c0,0-6.3-7.2-8.7-11.4c-2.4-4.3-1.6-6.1-6.8-7.2
							c-5.2-1.1-7.2-1.5-9.4-2.5c-2.2-1-4.3-0.4-4.3-0.4s-8.7,2.8-14.7,3C274.6,305.7,272.3,305.8,270.9,306.3z"/>
						<path class="st6" d="M295.6,354c3.3-1.8,5.9-5.9,5.2-7.1c-0.9-1.6-0.9-2.1-0.9-2.1s3.9,1,5.6-0.5c-1.5-0.5-2.9-1.2-3.7-2
							c-2.4-2.3-3.9-1.3-4.5-0.7c-0.6,0.6-6.4,5.2-8.7,6.5C286.8,349.1,290,353,295.6,354L295.6,354z M307.2,341.5
							c-0.2-0.2-0.5-0.3-0.8-0.5c-4-2.7-2.9-5.5-2.9-5.5c1.5,2.3,3.2,3.7,4.7,4.5C307.9,340.5,307.5,341,307.2,341.5L307.2,341.5z
							 M309.2,338.9c1.1-1.2,2.7-2.1,4.8-2.4c5.2-0.7,7.3-2.1,9.9-2.8c2-0.6,9.5,5.6,12.9,9.9c2.3-0.5,3.6,0.2,3.6,0.2
							s0.8-3.2-0.2-5c-1-1.8-7.8-8.8-11.5-10.1c-3.7-1.2-12.2,2.9-16.1,3.8c-3.9,0.9-5.2,1.2-5.2,2.4
							C307.4,335.6,308.1,337.3,309.2,338.9z"/>
						<path class="st6" d="M306.5,385.5c1.3-0.1,2.9-0.5,3.8-1.3c1.3-1.1,0.8-4.5,1.3-6.7c-1.6-0.1-3.3,0-4.1,0.6
							C305.8,379.5,307.4,380.3,306.5,385.5L306.5,385.5z M313.3,375.3c3.7-3.3,16.2-15.6,20.2-19.3c4-3.6,10.2,1,13.1,5.3
							c0.1-1.3,0.1-2.4-0.1-3c-0.9-2.2-6.3-7.4-8.7-7.9c-2.3-0.5-8.1,1-9.3,1.6c-1.2,0.6-10.9,12.9-14.5,15.9
							c-3.6,3-4.1,4.5-4.4,5.5C309.6,373.5,311.6,374.1,313.3,375.3z"/>
						<path class="st6" d="M327,407.3c0.8-0.8,1.5-1.7,1.9-2.9c0.4-1.3,0.5-2.6,0.7-3.9c-1.6-1-4.8-1.4-4.8-0.7
							c0.1,0.9-0.3,1.9-0.5,3.6C324.3,404.6,325.1,406.6,327,407.3L327,407.3z M329.9,398.6c0.3-1.6,0.9-3.2,2.3-4.9
							c2.2-2.6,5.2-8,7.9-11.4c-3.8-1.9-5.5-0.8-6.3,0.7c-1.1,2-6,10.4-6.5,11.1c-0.5,0.7-0.6,2.7-0.6,2.7
							C328.3,397.2,329.3,397.9,329.9,398.6L329.9,398.6z M341.8,380.3c-0.9-1-2.1-2-3.6-2.6c0,0,0.4-1.8,1.9-2.4
							c1.4-0.7,4.3-1.1,5.7-0.8c1.5,0.3,6.7,3.4,7.3,5.5c0.3,1.1,0.6,1.9,0.7,2.7c-3.3-2.9-7.6-4.1-10.3-3.4
							C343,379.4,342.4,379.8,341.8,380.3z"/>
					</g>
					<path class="st6" d="M259.9,343.1c0.5-0.1,1.1-0.5,1.9-2.6c1.2-3.4,1.6-6.8,3.9-6.1c2,0.7,8.8,3.4,11.3,2.1
						c-1.5-1.1-3.2-2.2-4.5-3.4c-3.9-3.5-7.3-4.2-10.5-1.1c-3.1,3-3.3,7-6.4,9.6C255.6,341.6,258.1,341.8,259.9,343.1z"/>
					<path class="st6" d="M247.9,350.1c2.3,0.6,5.4,1,7.5-0.2c2.6-1.4,3.9-4,3.4-5.5c-1.6-0.6-3.6-1-5-0.3c-2.6,1.3-1.3,1.9-4.4,3.8
						C248.6,348.4,248,349.2,247.9,350.1z"/>
				</g>
				<g>
					<g>
						<path class="st6" d="M146.7,306.3c0,0,0,2.5-5.4,3c-5.5,0.5-11.1-2.2-15.5-2.6c-4.5-0.4-7.2,0.5-7.9,1.1
							c-0.7,0.5-6.8,3.1-8.9,5.9c-1.9,2.5-3.4,10.2-5.8,12.6c-2.8-1.1-5.5-2.3-7.2-2.1c0,0,6.3-7.2,8.7-11.4
							c2.4-4.3,1.6-6.1,6.8-7.2c5.2-1.1,7.2-1.5,9.4-2.5c2.2-1,4.3-0.4,4.3-0.4s8.7,2.8,14.7,3C143,305.7,145.3,305.8,146.7,306.3z"
							/>
						<path class="st6" d="M122,354c-3.3-1.8-5.9-5.9-5.2-7.1c0.9-1.6,0.9-2.1,0.9-2.1s-3.9,1-5.6-0.5c1.5-0.5,2.9-1.2,3.7-2
							c2.4-2.3,3.9-1.3,4.5-0.7c0.6,0.6,6.4,5.2,8.7,6.5C130.8,349.1,127.6,353,122,354L122,354z M110.4,341.5
							c0.2-0.2,0.5-0.3,0.8-0.5c4-2.7,2.9-5.5,2.9-5.5c-1.5,2.3-3.2,3.7-4.7,4.5C109.8,340.5,110.1,341,110.4,341.5L110.4,341.5z
							 M108.4,338.9c-1.1-1.2-2.7-2.1-4.8-2.4c-5.2-0.7-7.3-2.1-9.9-2.8c-2-0.6-9.5,5.6-12.9,9.9c-2.3-0.5-3.6,0.2-3.6,0.2
							s-0.8-3.2,0.2-5c1-1.8,7.8-8.8,11.5-10.1c3.7-1.2,12.2,2.9,16.1,3.8c3.9,0.9,5.2,1.2,5.2,2.4
							C110.2,335.6,109.5,337.3,108.4,338.9z"/>
						<path class="st6" d="M111.1,385.5c-1.3-0.1-2.9-0.5-3.8-1.3c-1.3-1.1-0.8-4.5-1.3-6.7c1.6-0.1,3.3,0,4.1,0.6
							C111.9,379.5,110.3,380.3,111.1,385.5L111.1,385.5z M104.3,375.3c-3.7-3.3-16.2-15.6-20.2-19.3c-4-3.6-10.2,1-13.1,5.3
							c-0.1-1.3-0.1-2.4,0.1-3c0.9-2.2,6.3-7.4,8.7-7.9c2.3-0.5,8.1,1,9.3,1.6c1.2,0.6,10.9,12.9,14.5,15.9c3.6,3,4.1,4.5,4.4,5.5
							C108,373.5,106,374.1,104.3,375.3z"/>
						<path class="st6" d="M90.6,407.3c-0.8-0.8-1.5-1.7-1.9-2.9c-0.4-1.3-0.5-2.6-0.7-3.9c1.6-1,4.8-1.4,4.8-0.7
							c-0.1,0.9,0.3,1.9,0.5,3.6C93.3,404.6,92.5,406.6,90.6,407.3L90.6,407.3z M87.7,398.6c-0.3-1.6-0.9-3.2-2.3-4.9
							c-2.2-2.6-5.2-8-7.9-11.4c3.8-1.9,5.5-0.8,6.3,0.7c1.1,2,6,10.4,6.5,11.1c0.5,0.7,0.6,2.7,0.6,2.7
							C89.3,397.2,88.3,397.9,87.7,398.6L87.7,398.6z M75.8,380.3c0.9-1,2.1-2,3.6-2.6c0,0-0.4-1.8-1.9-2.4
							c-1.4-0.7-4.3-1.1-5.7-0.8c-1.5,0.3-6.7,3.4-7.3,5.5c-0.3,1.1-0.6,1.9-0.7,2.7c3.3-2.9,7.6-4.1,10.3-3.4
							C74.6,379.4,75.2,379.8,75.8,380.3z"/>
					</g>
					<path class="st6" d="M157.7,343.1c-0.5-0.1-1.1-0.5-1.9-2.6c-1.2-3.4-1.6-6.8-3.9-6.1c-2,0.7-8.8,3.4-11.3,2.1
						c1.5-1.1,3.2-2.2,4.5-3.4c3.9-3.5,7.3-4.2,10.5-1.1c3.1,3,3.3,7,6.4,9.6C162,341.6,159.5,341.8,157.7,343.1z"/>
					<path class="st6" d="M169.7,350.1c-2.3,0.6-5.4,1-7.5-0.2c-2.6-1.4-3.9-4-3.4-5.5c1.6-0.6,3.6-1,5-0.3c2.6,1.3,1.3,1.9,4.4,3.8
						C169,348.4,169.6,349.2,169.7,350.1z"/>
				</g>
				<g>
					<path class="st5" d="M299.8,304L299.8,304c0,0,7.6,2.7,8.4,4.4c0.7,1.6,1.8,3.5,2.1,3.6c0.3,0.1,4.7,9.6,7.2,13
						c1.7-0.6,3.1-1,4.2-0.9c0,0-6.3-7.2-8.7-11.4c-2.4-4.3-1.6-6.1-6.8-7.2C303.3,304.9,301.4,304.5,299.8,304z"/>
					<path class="st5" d="M307.5,335.2c1.8,0,5-0.1,7.7-1.4c4.2-1.9,7.6-2.9,10.6-2.9c2.5,0,11.4,6,15,9.9c0-0.8-0.2-1.6-0.5-2.2
						c-1-1.8-7.8-8.8-11.5-10.1c-3.7-1.2-12.2,2.9-16.1,3.8c-3.9,0.9-5.2,1.2-5.2,2.4C307.4,335,307.4,335.1,307.5,335.2z"/>
					<path class="st5" d="M311.2,374.1c1.7-1.9,4.3-4.9,5.3-5.9c1.3-1.4,10.9-13.5,13.4-14.6c2.6-1.1,6.3-1.4,7.3-1.5
						c0.5,0,3.2,1,5.9,2.2c-1.9-1.8-4.1-3.5-5.4-3.8c-2.3-0.5-8.1,1-9.3,1.6c-1.2,0.6-10.9,12.9-14.5,15.9c-3.6,3-4.1,4.5-4.4,5.5
						C309.6,373.5,310.3,373.7,311.2,374.1z"/>
					<path class="st5" d="M328,397.2c1.8-2.8,7.1-13.1,9-16c-1.8-0.2-2.8,0.6-3.3,1.6c-1.1,2-6,10.4-6.5,11.1
						c-0.5,0.7-0.6,2.7-0.6,2.7C327.1,396.8,327.6,397,328,397.2L328,397.2z M339.8,378.6c1.2-1,2.7-1.9,3.9-2.1
						c2.1-0.4,7.7,1.4,8.9,2.5c-1.5-2-5.5-4.3-6.8-4.5c-1.5-0.3-4.3,0.1-5.7,0.8c-1.4,0.7-1.9,2.4-1.9,2.4
						C338.8,378,339.3,378.3,339.8,378.6z"/>
				</g>
				<g>
					<path class="st2" d="M117.8,304L117.8,304c0,0-7.6,2.7-8.4,4.4c-0.7,1.6-1.8,3.5-2.1,3.6c-0.3,0.1-4.7,9.6-7.2,13
						c-1.7-0.6-3.1-1-4.2-0.9c0,0,6.3-7.2,8.7-11.4c2.4-4.3,1.6-6.1,6.8-7.2C114.3,304.9,116.2,304.5,117.8,304z"/>
					<path class="st2" d="M110.2,335.2c-1.8,0-5-0.1-7.7-1.4c-4.2-1.9-7.6-2.9-10.6-2.9c-2.5,0-11.4,6-15,9.9c0-0.8,0.2-1.6,0.5-2.2
						c1-1.8,7.8-8.8,11.5-10.1c3.7-1.2,12.2,2.9,16.1,3.8c3.9,0.9,5.2,1.2,5.2,2.4C110.2,335,110.2,335.1,110.2,335.2z"/>
					<path class="st2" d="M106.4,374.1c-1.7-1.9-4.3-4.9-5.3-5.9c-1.3-1.4-10.9-13.5-13.4-14.6c-2.6-1.1-6.3-1.4-7.3-1.5
						c-0.5,0-3.2,1-5.9,2.2c1.9-1.8,4.1-3.5,5.4-3.8c2.3-0.5,8.1,1,9.3,1.6c1.2,0.6,10.9,12.9,14.5,15.9c3.6,3,4.1,4.5,4.4,5.5
						C108,373.5,107.3,373.7,106.4,374.1z"/>
					<path class="st2" d="M89.6,397.2c-1.8-2.8-7.1-13.1-9-16c1.8-0.2,2.8,0.6,3.3,1.6c1.1,2,6,10.4,6.5,11.1
						c0.5,0.7,0.6,2.7,0.6,2.7C90.5,396.8,90,397,89.6,397.2L89.6,397.2z M77.8,378.6c-1.2-1-2.7-1.9-3.9-2.1
						c-2.1-0.4-7.7,1.4-8.9,2.5c1.5-2,5.5-4.3,6.8-4.5c1.5-0.3,4.3,0.1,5.7,0.8c1.4,0.7,1.9,2.4,1.9,2.4
						C78.8,378,78.3,378.3,77.8,378.6z"/>
				</g>
			</g>
			<path class="st6" d="M233,115.6c6.1,0,11.1-5,11.1-11.1c0-6.1-5-11.1-11.1-11.1c-6.1,0-11.1,5-11.1,11.1
				C221.9,110.6,226.9,115.6,233,115.6z"/>
		</g>
	</g>
</g>
</svg>
