<svg xmlns="http://www.w3.org/2000/svg" xmlns:xlink="http://www.w3.org/1999/xlink" viewBox="0 0 127.31 127.31"><defs><style>.cls-1{isolation:isolate;}.cls-2{fill:url(#New_Gradient_Swatch_4);}.cls-3{fill:#ee6d58;}.cls-4{fill:#bf423c;}.cls-5{fill:url(#New_Gradient_Swatch_4-2);}.cls-6{fill:#3e2f3c;mix-blend-mode:multiply;opacity:0.2;}.cls-7{fill:#f5c268;opacity:0.3;}.cls-8{fill:#f2eed1;opacity:0.4;}</style><linearGradient id="New_Gradient_Swatch_4" y1="54.26" x2="74.85" y2="54.26" gradientUnits="userSpaceOnUse"><stop offset="0" stop-color="#ee6d58"/><stop offset="1" stop-color="#bf423c"/></linearGradient><linearGradient id="New_Gradient_Swatch_4-2" x1="117.25" y1="42.57" x2="72.43" y2="87.39" xlink:href="#New_Gradient_Swatch_4"/></defs><g class="cls-1"><g id="elements"><path class="cls-2" d="M31.56,47.79A46.91,46.91,0,0,1,74.85,1,64.5,64.5,0,0,0,63.66,0,63.64,63.64,0,0,0,18.51,108.51L45.69,81.33A46.77,46.77,0,0,1,31.56,47.79Z"/><path class="cls-3" d="M31.56,47.79A46.77,46.77,0,0,0,45.69,81.33l62.76-62.76c-.42-.42-.82-.86-1.25-1.26l-.09-.08A63.4,63.4,0,0,0,96.69,9.32L96.08,9c-1.2-.72-2.44-1.4-3.7-2l-.09,0A63,63,0,0,0,79.88,2.17L79,2c-1.38-.34-2.77-.66-4.18-.91h0A46.91,46.91,0,0,0,31.56,47.79Z"/><path class="cls-4" d="M63.66,127.31a63.44,63.44,0,0,0,61.73-78.93,46.89,46.89,0,0,1-79.7,32.95L18.51,108.51A63.43,63.43,0,0,0,63.66,127.31Z"/><path class="cls-5" d="M45.69,81.33a46.89,46.89,0,0,0,79.7-32.95h0a63.47,63.47,0,0,0-14.89-27.7l-.24-.27c-.58-.63-1.2-1.22-1.81-1.83Z"/><circle class="cls-6" cx="31.56" cy="44.77" r="13.73" transform="translate(-19.26 65.2) rotate(-76.72)"/><path class="cls-6" d="M35.51,79.71a8.5,8.5,0,1,1-8.5-8.5A8.51,8.51,0,0,1,35.51,79.71Z"/><path class="cls-6" d="M75.32,83.41A5.32,5.32,0,1,1,70,78.09,5.32,5.32,0,0,1,75.32,83.41Z"/><path class="cls-7" d="M70,106.42a8.67,8.67,0,1,1-8.67-8.67A8.67,8.67,0,0,1,70,106.42Z"/><path class="cls-8" d="M78.23,26.58a5.32,5.32,0,1,1-5.32-5.32A5.32,5.32,0,0,1,78.23,26.58Z"/><path class="cls-7" d="M63.14,25a6.87,6.87,0,1,1-6.87-6.87A6.87,6.87,0,0,1,63.14,25Z"/><path class="cls-6" d="M105.65,88.64a7.17,7.17,0,1,1-7.17-7.17A7.16,7.16,0,0,1,105.65,88.64Z"/></g></g></svg>