<svg xmlns="http://www.w3.org/2000/svg" xmlns:xlink="http://www.w3.org/1999/xlink" viewBox="0 0 86.18 86.18"><defs><style>.cls-1{fill:url(#New_Gradient_Swatch_5);}.cls-2{fill:#f2eed1;}.cls-3{fill:#c6c29b;}.cls-4{fill:url(#New_Gradient_Swatch_5-2);}.cls-5,.cls-6{fill:#827e64;}.cls-5{opacity:0.2;}.cls-6,.cls-7{opacity:0.3;}.cls-7,.cls-8{fill:#fff;}.cls-8{opacity:0.6;}</style><linearGradient id="New_Gradient_Swatch_5" x1="-9.2" y1="59.99" x2="45.28" y2="17.08" gradientUnits="userSpaceOnUse"><stop offset="0" stop-color="#f2eed1"/><stop offset="0.33" stop-color="#f0ecce"/><stop offset="0.57" stop-color="#e8e4c5"/><stop offset="0.78" stop-color="#dbd7b5"/><stop offset="0.97" stop-color="#c9c59f"/><stop offset="1" stop-color="#c6c29b"/></linearGradient><linearGradient id="New_Gradient_Swatch_5-2" x1="82.29" y1="27.18" x2="44.18" y2="59.36" xlink:href="#New_Gradient_Swatch_5"/></defs><g id="elements"><path class="cls-1" d="M21.36,32.35A31.75,31.75,0,0,1,50.67.71,43.06,43.06,0,0,0,12.53,73.45l18.4-18.4A31.65,31.65,0,0,1,21.36,32.35Z"/><path class="cls-2" d="M21.36,32.35a31.65,31.65,0,0,0,9.57,22.7L73.41,12.57c-.29-.28-.56-.58-.85-.85l-.06-.06a42.9,42.9,0,0,0-7-5.35L65,6.06c-.82-.49-1.65-.95-2.5-1.39l-.07,0a42.39,42.39,0,0,0-8.4-3.17l-.58-.15c-.93-.23-1.87-.44-2.82-.61h0A31.75,31.75,0,0,0,21.36,32.35Z"/><path class="cls-3" d="M43.09,86.18A42.94,42.94,0,0,0,84.88,32.75a31.74,31.74,0,0,1-53.95,22.3l-18.4,18.4A42.92,42.92,0,0,0,43.09,86.18Z"/><path class="cls-4" d="M30.93,55.05a31.74,31.74,0,0,0,54-22.3h0A42.93,42.93,0,0,0,74.8,14l-.17-.18c-.39-.43-.81-.83-1.22-1.24Z"/><path class="cls-5" d="M23.67,32.75a6.52,6.52,0,1,1-6.51-6.52A6.5,6.5,0,0,1,23.67,32.75Z"/><path class="cls-5" d="M68.9,36.73a6.52,6.52,0,1,1-6.52-6.52A6.51,6.51,0,0,1,68.9,36.73Z"/><path class="cls-6" d="M73.65,24.49a4.27,4.27,0,1,1-4.27-4.27A4.27,4.27,0,0,1,73.65,24.49Z"/><path class="cls-7" d="M42.12,26.23A4.27,4.27,0,1,1,37.85,22,4.27,4.27,0,0,1,42.12,26.23Z"/><path class="cls-8" d="M55.64,14.85a6.26,6.26,0,1,1-6.26-6.27A6.26,6.26,0,0,1,55.64,14.85Z"/><path class="cls-6" d="M63.87,65.23a6,6,0,1,1-6-6A6,6,0,0,1,63.87,65.23Z"/><path class="cls-6" d="M31.51,64.12A9.49,9.49,0,1,1,22,54.63,9.49,9.49,0,0,1,31.51,64.12Z"/></g></svg>