<svg xmlns="http://www.w3.org/2000/svg" xmlns:xlink="http://www.w3.org/1999/xlink" viewBox="0 0 154.56 154.56"><defs><style>.cls-1{fill:#e1deb4;}.cls-2{fill:#f2eed1;}.cls-3{fill:#c6c29b;}.cls-4{fill:url(#New_Gradient_Swatch_5);}.cls-5{fill:#b5b18f;}</style><linearGradient id="New_Gradient_Swatch_5" x1="164.15" y1="31.11" x2="60.24" y2="130.87" gradientUnits="userSpaceOnUse"><stop offset="0" stop-color="#f2eed1"/><stop offset="0.33" stop-color="#f0ecce"/><stop offset="0.57" stop-color="#e8e4c5"/><stop offset="0.78" stop-color="#dbd7b5"/><stop offset="0.97" stop-color="#c9c59f"/><stop offset="1" stop-color="#c6c29b"/></linearGradient></defs><g id="elements"><path class="cls-1" d="M38.31,58A56.94,56.94,0,0,1,90.87,1.27a77.23,77.23,0,0,0-68.4,130.47l33-33A56.83,56.83,0,0,1,38.31,58Z"/><path class="cls-2" d="M38.31,58A56.83,56.83,0,0,0,55.47,98.74l76.19-76.19c-.51-.51-1-1-1.52-1.54l-.11-.09a76,76,0,0,0-12.64-9.6c-.24-.15-.49-.31-.74-.45-1.47-.88-3-1.71-4.49-2.49L112,8.33A76.4,76.4,0,0,0,97,2.63l-1-.27c-1.67-.41-3.36-.79-5.07-1.09h0A56.94,56.94,0,0,0,38.31,58Z"/><path class="cls-3" d="M77.28,154.56a77,77,0,0,0,74.95-95.83,56.94,56.94,0,0,1-96.76,40l-33,33A77,77,0,0,0,77.28,154.56Z"/><path class="cls-4" d="M55.47,98.74a56.94,56.94,0,0,0,96.76-40h0a77,77,0,0,0-18.06-33.64l-.3-.33c-.71-.76-1.46-1.48-2.2-2.21Z"/><circle class="cls-3" cx="34.79" cy="65.49" r="14.81" transform="translate(-36.94 84.3) rotate(-76.72)"/><circle class="cls-3" cx="26.47" cy="97.53" r="8.32"/><path class="cls-3" d="M108.5,26.17c-1.69,2.93-6.14,3.53-9.93,1.34s-5.5-6.35-3.81-9.27,6.14-3.53,9.93-1.34S110.19,23.24,108.5,26.17Z"/><circle class="cls-5" cx="104.03" cy="110.22" r="15.51"/><ellipse class="cls-5" cx="64.54" cy="129.4" rx="11.22" ry="15.51" transform="translate(-79.81 137.89) rotate(-66.86)"/></g></svg>