<?xml version="1.0" encoding="utf-8"?>
<!-- Generator: Adobe Illustrator 26.0.1, SVG Export Plug-In . SVG Version: 6.00 Build 0)  -->
<svg version="1.1" id="Layer_1" xmlns="http://www.w3.org/2000/svg" xmlns:xlink="http://www.w3.org/1999/xlink" x="0px" y="0px"
	 viewBox="0 0 107.7 183.2" style="enable-background:new 0 0 107.7 183.2;" xml:space="preserve">
<style type="text/css">
	.st0{fill:#EDCE37;enable-background:new    ;}
	.st1{fill:#FFF5AB;enable-background:new    ;}
	.st2{fill:#EA9139;enable-background:new    ;}
	.st3{fill:#FFBB83;enable-background:new    ;}
	.st4{opacity:0.54;fill:#FFD255;enable-background:new    ;}
</style>
<g>
	<path class="st0" d="M29.2,79c0-18.8,14.5-34.5,33.2-35.9c-2.8-0.5-5.7-0.8-8.6-0.8C26.9,42.3,5,64.2,5,91.2
		c0,12.9,5.1,25.3,14.2,34.5l20.9-20.9C33.1,98,29.2,88.7,29.2,79z"/>
	<path class="st1" d="M29.2,79c0,9.7,3.9,19,10.9,25.8l48.2-48.2c-0.3-0.3-0.6-0.7-1-1l-0.1-0.1c-2.5-2.3-5.1-4.3-8-6.1l-0.5-0.3
		c-0.9-0.6-1.9-1.1-2.8-1.6h-0.1c-3-1.5-6.2-2.7-9.5-3.6l-0.7-0.2c-1.1-0.3-2.1-0.5-3.2-0.7l0,0C43.7,44.5,29.2,60.2,29.2,79z"/>
	<path class="st2" d="M53.8,140c26.9,0.1,48.8-21.7,48.9-48.6c0-4.1-0.5-8.1-1.5-12C101,99.3,84.7,115.2,64.9,115
		c-9.3-0.1-18.2-3.8-24.8-10.3l-20.9,20.9C28.4,134.8,40.8,140,53.8,140z"/>
	<path class="st3" d="M40.1,104.7c14.2,13.9,37,13.7,50.9-0.5c6.5-6.6,10.2-15.5,10.3-24.8l0,0c-2-7.9-5.9-15.3-11.4-21.3l-0.2-0.2
		c-0.4-0.5-0.9-0.9-1.4-1.4L40.1,104.7z"/>
	<path class="st4" d="M88.2,0.1c-4.3-1.6-14.8,15.8-26.9,42.8l1.1,0.2c0.8,0.1,1.5,0.3,2.2,0.5c5.4-9.9,9.8-15.6,12.2-14.8
		c4.8,1.8-1.4,31.2-14,65.7s-26.6,61.1-31.5,59.4c-2.3-0.8-2.1-8.1,0.2-19.2c-1-0.5-2-1.1-3-1.6c-8.1,28.5-11.2,48.6-6.9,50.1
		c6.4,2.3,26.4-36.8,44.7-87.3S94.6,2.4,88.2,0.1z"/>
</g>
</svg>
