<svg xmlns="http://www.w3.org/2000/svg" viewBox="0 0 107.7 183.2"><defs><style>.cls-1{fill:#1d8a9c;}.cls-2{fill:#2cabae;}.cls-3{fill:#187e89;}.cls-4{fill:#fff;opacity:0.3;}</style></defs><g id="elements"><path class="cls-1" d="M29.2,79a36,36,0,0,1,33.25-35.9,49.74,49.74,0,0,0-8.6-.8,48.88,48.88,0,0,0-34.67,83.34l20.88-20.88A35.92,35.92,0,0,1,29.2,79Z"/><path class="cls-2" d="M29.2,79a35.92,35.92,0,0,0,10.86,25.76L88.25,56.54c-.32-.33-.63-.66-1-1l-.07-.06a49,49,0,0,0-8-6.07l-.47-.28c-.92-.56-1.87-1.08-2.84-1.57l-.07,0a48.1,48.1,0,0,0-9.53-3.6l-.66-.17c-1.05-.26-2.12-.5-3.2-.7h0A36,36,0,0,0,29.2,79Z"/><path class="cls-3" d="M53.85,140a48.73,48.73,0,0,0,47.41-60.61,36,36,0,0,1-61.2,25.3L19.18,125.61A48.72,48.72,0,0,0,53.85,140Z"/><path class="cls-1" d="M40.06,104.73a36,36,0,0,0,61.2-25.3h0A48.86,48.86,0,0,0,89.83,58.14l-.19-.2c-.45-.49-.92-.94-1.39-1.4Z"/><path class="cls-4" d="M88.22.1C83.93-1.46,73.4,15.9,61.35,42.9l1.1.17c.75.14,1.48.31,2.21.48,5.39-9.94,9.84-15.64,12.15-14.8,4.83,1.75-1.42,31.17-14,65.7s-26.62,61.11-31.45,59.36c-2.32-.84-2.07-8.08.19-19.19-1-.51-2-1.05-2.95-1.63-8.11,28.46-11.17,48.55-6.88,50.11,6.35,2.31,26.38-36.79,44.73-87.32S94.57,2.4,88.22.1Z"/></g></svg>