<svg xmlns="http://www.w3.org/2000/svg" xmlns:xlink="http://www.w3.org/1999/xlink" viewBox="0 0 216.5 109.77"><defs><style>.cls-1{fill:url(#New_Gradient_Swatch_2);}.cls-2{fill:#2cabae;}.cls-3{fill:#187e89;}.cls-4{fill:url(#New_Gradient_Swatch_2-2);}.cls-5{fill:#1d8a9c;}.cls-6{fill:url(#New_Gradient_Swatch_5);}</style><linearGradient id="New_Gradient_Swatch_2" x1="49.88" y1="61.72" x2="124.97" y2="10.46" gradientUnits="userSpaceOnUse"><stop offset="0" stop-color="#2cabae"/><stop offset="1" stop-color="#187e89"/></linearGradient><linearGradient id="New_Gradient_Swatch_2-2" x1="164.96" y1="35.33" x2="106.56" y2="81.82" xlink:href="#New_Gradient_Swatch_2"/><linearGradient id="New_Gradient_Swatch_5" x1="0.31" y1="57.03" x2="216.38" y2="57.03" gradientUnits="userSpaceOnUse"><stop offset="0" stop-color="#f2eed1"/><stop offset="0.33" stop-color="#f0ecce"/><stop offset="0.57" stop-color="#e8e4c5"/><stop offset="0.78" stop-color="#dbd7b5"/><stop offset="0.97" stop-color="#c9c59f"/><stop offset="1" stop-color="#c6c29b"/></linearGradient></defs><g id="elements"><path class="cls-1" d="M84.35,36.14A40.34,40.34,0,0,1,128.87,4.2a54.71,54.71,0,0,0-66,80.87L90.49,66.84A40.27,40.27,0,0,1,84.35,36.14Z"/><path class="cls-2" d="M84.35,36.14a40.27,40.27,0,0,0,6.14,30.7l63.68-42.09c-.28-.43-.54-.87-.84-1.28l-.06-.09a55,55,0,0,0-7.41-8.45l-.45-.42c-.9-.81-1.82-1.6-2.77-2.36l-.07-.05A54.43,54.43,0,0,0,132.92,6c-.23-.11-.45-.23-.68-.33-1.1-.53-2.22-1-3.37-1.48h0A40.34,40.34,0,0,0,84.35,36.14Z"/><path class="cls-3" d="M97.72,108.68a54.57,54.57,0,0,0,65.6-55.9A40.34,40.34,0,0,1,90.49,66.84L62.91,85.07A54.6,54.6,0,0,0,97.72,108.68Z"/><path class="cls-4" d="M90.49,66.84a40.34,40.34,0,0,0,72.83-14.06h0a54.69,54.69,0,0,0-7.78-25.92,2.26,2.26,0,0,0-.16-.26c-.38-.63-.8-1.24-1.21-1.85Z"/><path class="cls-5" d="M128.28,52.88a4.72,4.72,0,0,1-5.57,3.69L95.3,51a4.72,4.72,0,0,1-3.68-5.57h0a4.73,4.73,0,0,1,5.57-3.68l27.41,5.59a4.72,4.72,0,0,1,3.68,5.57Z"/><path class="cls-2" d="M149.62,43.67a4.09,4.09,0,0,1-4.82,3.19L121.07,42a4.09,4.09,0,0,1-3.19-4.82h0A4.1,4.1,0,0,1,122.71,34l23.73,4.85a4.08,4.08,0,0,1,3.18,4.82Z"/><path class="cls-3" d="M109.16,33.36A4.72,4.72,0,0,1,103.59,37L76.18,31.45a4.73,4.73,0,0,1-3.68-5.57h0a4.71,4.71,0,0,1,5.57-3.68l27.41,5.59a4.72,4.72,0,0,1,3.68,5.57Z"/><path class="cls-6" d="M163.42,55.93c0,1.25-.07,2.51-.17,3.77,12.35,4.46,19.68,8.57,19.11,11.34-1.16,5.7-35.15,3.58-75.91-4.74S33.59,46.61,34.75,40.91c.57-2.77,8.92-3.68,22-2.94.39-1.2.83-2.38,1.31-3.54C24.6,30,1.38,29.89.34,35c-1.53,7.49,45.59,23.44,105.23,35.61s109.24,16,110.77,8.48C217.38,74,196,65,163.42,55.93Z"/></g></svg>