<?xml version="1.0" encoding="utf-8"?>
<!-- Generator: Adobe Illustrator 26.0.1, SVG Export Plug-In . SVG Version: 6.00 Build 0)  -->
<svg version="1.1" id="Layer_1" xmlns="http://www.w3.org/2000/svg" xmlns:xlink="http://www.w3.org/1999/xlink" x="0px" y="0px"
	 viewBox="0 0 160.3 160.3" style="enable-background:new 0 0 160.3 160.3;" xml:space="preserve">
<style type="text/css">
	.st0{fill:url(#SVGID_1_);}
	.st1{fill:#D0EFE7;}
	.st2{fill:url(#SVGID_00000117640001977314786400000001775776671548713389_);}
	.st3{fill:url(#SVGID_00000056390056089978098170000004960955667298986369_);}
	.st4{fill:#7DE3FF;}
	.st5{fill:url(#SVGID_00000008849811875211081550000004210693466167984810_);}
	.st6{fill:#A4ECFF;}
	.st7{fill:url(#SVGID_00000075164036698071458860000000780516766111292605_);}
</style>
<g>
	
		<linearGradient id="SVGID_1_" gradientUnits="userSpaceOnUse" x1="-1.933" y1="56.6262" x2="66.507" y2="125.0662" gradientTransform="matrix(1 0 0 -1 0 162)">
		<stop  offset="0" style="stop-color:#D0EFE7"/>
		<stop  offset="0.33" style="stop-color:#D0EFE7"/>
		<stop  offset="0.57" style="stop-color:#AEEFE7"/>
		<stop  offset="0.78" style="stop-color:#92EFE7"/>
		<stop  offset="0.97" style="stop-color:#6FD8E5"/>
		<stop  offset="1" style="stop-color:#63D3E5"/>
	</linearGradient>
	<path class="st0" d="M94.3,1.4C16.3-12.5-30.9,82,23.3,136.6l34.2-34.2C21.5,67.2,43.6,5.2,94.3,1.4z"/>
	<path class="st1" d="M57.6,102.4l79-79C125.1,11.9,110.3,4.2,94.3,1.4l0,0C43.6,5.3,21.5,67.2,57.6,102.4z"/>
	
		<linearGradient id="SVGID_00000074401653331121373000000011524971746347504262_" gradientUnits="userSpaceOnUse" x1="23.3387" y1="110.6206" x2="160.2923" y2="110.6206">
		<stop  offset="0" style="stop-color:#63D3E5"/>
		<stop  offset="1" style="stop-color:#63D3E5"/>
	</linearGradient>
	<path style="fill:url(#SVGID_00000074401653331121373000000011524971746347504262_);" d="M80.2,160.3c51.4,0,90.4-48.1,77.7-99.4
		c-0.6,52.1-63.5,77.5-100.3,41.5l-34.2,34.2C38.4,151.8,58.8,160.3,80.2,160.3z"/>
	
		<linearGradient id="SVGID_00000047020304562695802850000004568343421348216737_" gradientUnits="userSpaceOnUse" x1="153.5884" y1="114.1948" x2="85.8684" y2="46.4748" gradientTransform="matrix(1 0 0 -1 0 162)">
		<stop  offset="0" style="stop-color:#D0EFE7"/>
		<stop  offset="0.33" style="stop-color:#D0EFE7"/>
		<stop  offset="0.57" style="stop-color:#AEEFE7"/>
		<stop  offset="0.78" style="stop-color:#92EFE7"/>
		<stop  offset="0.97" style="stop-color:#6FD8E5"/>
		<stop  offset="1" style="stop-color:#63D3E5"/>
	</linearGradient>
	<path style="fill:url(#SVGID_00000047020304562695802850000004568343421348216737_);" d="M57.6,102.4c50.2,49.1,139.6-18.6,79-79
		L57.6,102.4z"/>
	<path class="st1" d="M69.1,71.3c0,4.1-3.3,7.4-7.4,7.4c0,0,0,0,0,0H17.8c-4.1,0-7.4-3.3-7.4-7.4l0,0l0,0c0-4.1,3.3-7.4,7.4-7.4l0,0
		h43.8C65.8,63.9,69.1,67.3,69.1,71.3C69.1,71.3,69.1,71.3,69.1,71.3z"/>
	<path class="st4" d="M91.8,42.4c0,4.1-3.3,7.4-7.4,7.4l0,0H40.6c-4.1,0-7.4-3.3-7.4-7.4c0,0,0,0,0,0l0,0c0-4.1,3.3-7.4,7.4-7.4
		h43.8C88.5,35,91.8,38.3,91.8,42.4C91.8,42.4,91.8,42.4,91.8,42.4L91.8,42.4z"/>
	
		<linearGradient id="SVGID_00000106141736891629144680000006817738935635248312_" gradientUnits="userSpaceOnUse" x1="53.5987" y1="84.5756" x2="112.2587" y2="84.5756">
		<stop  offset="0" style="stop-color:#63D3E5"/>
		<stop  offset="1" style="stop-color:#63D3E5"/>
	</linearGradient>
	<path style="fill:url(#SVGID_00000106141736891629144680000006817738935635248312_);" d="M112.3,84.6c0,4.1-3.3,7.4-7.4,7.4l0,0H61
		c-4.1,0-7.4-3.3-7.4-7.4l0,0l0,0c0-4.1,3.3-7.4,7.4-7.4c0,0,0,0,0,0h43.8C108.9,77.2,112.2,80.5,112.3,84.6L112.3,84.6L112.3,84.6z
		"/>
	<path class="st6" d="M88.2,131c0,3.1-2.5,5.6-5.6,5.6H49.4c-3.1,0-5.6-2.5-5.6-5.6l0,0c0-3.1,2.5-5.6,5.6-5.6h33.2
		C85.7,125.4,88.2,128,88.2,131z"/>
	
		<linearGradient id="SVGID_00000000188620044078026050000006616520945047050161_" gradientUnits="userSpaceOnUse" x1="117.9187" y1="84.5756" x2="132.7187" y2="84.5756">
		<stop  offset="0" style="stop-color:#63D3E5"/>
		<stop  offset="1" style="stop-color:#63D3E5"/>
	</linearGradient>
	<path style="fill:url(#SVGID_00000000188620044078026050000006616520945047050161_);" d="M132.7,84.6c0,4.1-3.3,7.4-7.4,7.4
		s-7.4-3.3-7.4-7.4s3.3-7.4,7.4-7.4S132.7,80.5,132.7,84.6L132.7,84.6z"/>
</g>
</svg>
