<svg xmlns="http://www.w3.org/2000/svg" xmlns:xlink="http://www.w3.org/1999/xlink" viewBox="0 0 188.73 188.76"><defs><style>.cls-1,.cls-3{fill:#f5c268;}.cls-1{opacity:0.2;}.cls-2{fill:#eea74e;}.cls-4{fill:#bf423c;}.cls-5{fill:url(#New_Gradient_Swatch_6);}.cls-6{fill:#f2eed1;}</style><linearGradient id="New_Gradient_Swatch_6" x1="154.62" y1="66.77" x2="94.18" y2="124.79" gradientUnits="userSpaceOnUse"><stop offset="0" stop-color="#f5c268"/><stop offset="1" stop-color="#d89144"/></linearGradient></defs><g id="elements"><circle class="cls-1" cx="94.36" cy="94.38" r="94.36" transform="translate(-39.1 94.37) rotate(-45)"/><circle class="cls-1" cx="94.36" cy="94.38" r="79.38" transform="translate(-3.81 184.79) rotate(-87.65)"/><path class="cls-2" d="M62.71,78.74a46.26,46.26,0,0,1,42.69-46.1,63.66,63.66,0,0,0-11-1,62.76,62.76,0,0,0-44.51,107l26.8-26.8A46.14,46.14,0,0,1,62.71,78.74Z"/><path class="cls-3" d="M62.71,78.74a46.14,46.14,0,0,0,13.94,33.07l61.88-61.88c-.41-.42-.81-.85-1.23-1.25l-.09-.08a62.39,62.39,0,0,0-10.27-7.79l-.6-.37c-1.19-.71-2.41-1.39-3.65-2l-.1,0a62.43,62.43,0,0,0-12.23-4.63l-.84-.22c-1.36-.33-2.73-.64-4.12-.89h0A46.26,46.26,0,0,0,62.71,78.74Z"/><path class="cls-4" d="M94.36,157.14a62.52,62.52,0,0,0,60.87-77.82,46.24,46.24,0,0,1-78.58,32.49l-26.8,26.8A62.56,62.56,0,0,0,94.36,157.14Z"/><path class="cls-5" d="M76.65,111.81a46.24,46.24,0,0,0,78.58-32.49h0A62.61,62.61,0,0,0,140.56,52l-.24-.26c-.58-.62-1.19-1.21-1.79-1.8Z"/><path class="cls-3" d="M99.34,62.73A5.37,5.37,0,0,1,94,68.11H52.82a5.38,5.38,0,0,1-5.38-5.38h0a5.37,5.37,0,0,1,5.38-5.37H94a5.36,5.36,0,0,1,5.37,5.37Z"/><path class="cls-3" d="M89.57,130a4.12,4.12,0,0,1-4.11,4.12H54A4.12,4.12,0,0,1,49.85,130h0A4.12,4.12,0,0,1,54,125.85h31.5A4.12,4.12,0,0,1,89.57,130Z"/><path class="cls-3" d="M152.89,104.47a3.83,3.83,0,0,1-3.83,3.83H119.77a3.83,3.83,0,0,1-3.83-3.83h0a3.83,3.83,0,0,1,3.83-3.82h29.29a3.83,3.83,0,0,1,3.83,3.82Z"/><path class="cls-6" d="M89.57,78.69a6.46,6.46,0,1,1-6.46-6.47A6.46,6.46,0,0,1,89.57,78.69Z"/><path class="cls-4" d="M59.88,101.59a10,10,0,1,1-10-10A10,10,0,0,1,59.88,101.59Z"/><circle class="cls-6" cx="102.76" cy="59.27" r="13.18"/></g></svg>