<svg xmlns="http://www.w3.org/2000/svg" xmlns:xlink="http://www.w3.org/1999/xlink" viewBox="0 0 160.29 160.29"><defs><style>.cls-1{fill:url(#New_Gradient_Swatch_5);}.cls-2{fill:#f2eed1;}.cls-3{fill:#c6c29b;}.cls-4{fill:url(#New_Gradient_Swatch_5-2);}.cls-5{fill:#e1deb4;}</style><linearGradient id="New_Gradient_Swatch_5" x1="-1.93" y1="105.38" x2="66.51" y2="36.94" gradientUnits="userSpaceOnUse"><stop offset="0" stop-color="#f2eed1"/><stop offset="0.33" stop-color="#f0ecce"/><stop offset="0.57" stop-color="#e8e4c5"/><stop offset="0.78" stop-color="#dbd7b5"/><stop offset="0.97" stop-color="#c9c59f"/><stop offset="1" stop-color="#c6c29b"/></linearGradient><linearGradient id="New_Gradient_Swatch_5-2" x1="153.59" y1="47.81" x2="85.87" y2="115.53" xlink:href="#New_Gradient_Swatch_5"/></defs><g id="elements"><path class="cls-1" d="M94.27,1.36C16.32-12.5-30.92,82,23.34,136.64l34.22-34.22C21.5,67.16,43.58,5.25,94.27,1.36Z"/><path class="cls-2" d="M57.56,102.42l79-79A79.3,79.3,0,0,0,94.27,1.36h0C43.57,5.26,21.51,67.17,57.56,102.42Z"/><path class="cls-3" d="M80.17,160.31c51.42,0,90.37-48.13,77.72-99.37-.65,52.14-63.52,77.49-100.33,41.48L23.34,136.64A79.85,79.85,0,0,0,80.17,160.31Z"/><path class="cls-4" d="M57.56,102.42c50.21,49.11,139.65-18.6,79-79Z"/><path class="cls-2" d="M69.08,71.35a7.39,7.39,0,0,1-7.39,7.4H17.85a7.4,7.4,0,0,1-7.4-7.4h0a7.4,7.4,0,0,1,7.4-7.4H61.69a7.39,7.39,0,0,1,7.39,7.4Z"/><path class="cls-5" d="M91.82,42.36a7.4,7.4,0,0,1-7.4,7.4H40.59a7.4,7.4,0,0,1-7.4-7.4h0A7.39,7.39,0,0,1,40.59,35H84.42a7.39,7.39,0,0,1,7.4,7.39Z"/><path class="cls-3" d="M112.26,84.58a7.4,7.4,0,0,1-7.4,7.4H61a7.4,7.4,0,0,1-7.4-7.4h0a7.4,7.4,0,0,1,7.4-7.4h43.84a7.4,7.4,0,0,1,7.4,7.4Z"/><path class="cls-2" d="M88.17,131.05a5.6,5.6,0,0,1-5.6,5.59H49.4a5.59,5.59,0,0,1-5.59-5.59h0a5.6,5.6,0,0,1,5.59-5.6H82.57a5.6,5.6,0,0,1,5.6,5.6Z"/><path class="cls-3" d="M132.72,84.58a7.4,7.4,0,1,1-7.4-7.4A7.4,7.4,0,0,1,132.72,84.58Z"/></g></svg>