<svg xmlns="http://www.w3.org/2000/svg" xmlns:xlink="http://www.w3.org/1999/xlink" viewBox="0 0 123.27 123.27"><defs><style>.cls-1{fill:#eea74e;}.cls-2{fill:#f5c268;}.cls-3{fill:#d89144;}.cls-4{fill:url(#New_Gradient_Swatch_6);}.cls-5{opacity:0.26;}.cls-6{fill:#f2eed1;}</style><linearGradient id="New_Gradient_Swatch_6" x1="123.48" y1="31.28" x2="63.28" y2="91.48" gradientUnits="userSpaceOnUse"><stop offset="0" stop-color="#f5c268"/><stop offset="1" stop-color="#d89144"/></linearGradient></defs><g id="elements"><path class="cls-1" d="M30.56,46.27A45.41,45.41,0,0,1,72.48,1,61.6,61.6,0,0,0,17.92,105.07L44.24,78.75A45.3,45.3,0,0,1,30.56,46.27Z"/><path class="cls-2" d="M30.56,46.27A45.3,45.3,0,0,0,44.24,78.75L105,18c-.41-.4-.79-.83-1.21-1.22l-.09-.08A61.65,61.65,0,0,0,93.63,9c-.2-.12-.39-.25-.59-.36-1.17-.7-2.37-1.37-3.58-2l-.1-.05a61,61,0,0,0-12-4.54l-.83-.22c-1.33-.33-2.68-.63-4-.87h0A45.41,45.41,0,0,0,30.56,46.27Z"/><path class="cls-3" d="M61.64,123.27a61.43,61.43,0,0,0,59.77-76.43A45.4,45.4,0,0,1,44.24,78.75L17.92,105.07A61.44,61.44,0,0,0,61.64,123.27Z"/><path class="cls-4" d="M44.24,78.75a45.4,45.4,0,0,0,77.17-31.91h0A61.4,61.4,0,0,0,107,20l-.24-.26c-.56-.61-1.16-1.18-1.75-1.77Z"/><g class="cls-5"><path class="cls-6" d="M1.23,49.34H122c-.18-.83-.34-1.67-.55-2.5h0c-.19-.76-.41-1.49-.63-2.24H2.4C2,46.16,1.55,47.74,1.23,49.34Z"/><path class="cls-6" d="M17.92,105.07q2,2,4.16,3.82H101.2q2.16-1.81,4.16-3.82Z"/><path class="cls-6" d="M10,28.06H113.22A62.34,62.34,0,0,0,107,20l-.24-.26c-.56-.61-1.16-1.18-1.75-1.77H18.13A61.91,61.91,0,0,0,10,28.06Z"/><path class="cls-6" d="M.84,71.77A61.08,61.08,0,0,0,5.31,86.64H118a61.07,61.07,0,0,0,4.46-14.87Z"/></g></g></svg>